<?xml version="1.0" encoding="UTF-8"?>
<svg xmlns="http://www.w3.org/2000/svg" width="202" height="70.7" xmlns:xlink="http://www.w3.org/1999/xlink" version="1.1" viewBox="0 0 202 70.7">
  <defs>
    <style>
      .cls-1 {
        fill: none;
      }

      .cls-2 {
        isolation: isolate;
      }

      .cls-3 {
        fill: #b7bcbf;
      }

      .cls-4 {
        fill: #fff;
      }

      .cls-5 {
        fill: #ffc92a;
      }

      .cls-6 {
        clip-path: url(#clippath);
      }
    </style>
    <clipPath id="clippath">
      <rect class="cls-1" y="15.3" width="202" height="33.3"/>
    </clipPath>
  </defs>
  <!-- Generator: Adobe Illustrator 28.7.1, SVG Export Plug-In . SVG Version: 1.2.0 Build 142)  -->
  <g>
    <g id="Layer_1">
      <g id="footer-logo">
        <g id="_グループ_276788" data-name="グループ_276788">
          <g id="by_GP-ONLINE" class="cls-2">
            <g class="cls-2">
              <path class="cls-4" d="M2.3,68.7v-7.4h1.2v4.7c0,0,0,1.4,0,1.4v1.2h-1.2ZM5.3,68.7c-.4,0-.8,0-1.2-.3s-.6-.5-.8-.9-.3-.9-.3-1.5.1-1.1.3-1.5c.2-.4.5-.7.8-.9.4-.2.7-.3,1.2-.3s1,.1,1.4.3c.4.2.7.5,1,.9s.4.9.4,1.4-.1,1-.4,1.4c-.2.4-.6.7-1,.9s-.9.3-1.4.3ZM5.1,67.7c.3,0,.6,0,.8-.2.2-.1.4-.3.6-.6.1-.3.2-.5.2-.9s0-.6-.2-.9c-.1-.2-.3-.4-.6-.6-.2-.1-.5-.2-.8-.2s-.6,0-.8.2c-.2.1-.4.3-.6.6s-.2.5-.2.9,0,.6.2.9c.1.3.3.4.6.6.2.1.5.2.8.2Z"/>
              <path class="cls-4" d="M9.4,70.7c-.3,0-.5,0-.8-.1-.3,0-.5-.2-.6-.4l.5-.9c.1.1.3.2.4.3s.3,0,.5,0,.4,0,.5-.2c.1-.1.3-.3.4-.6l.3-.7h0c0-.1,2-4.8,2-4.8h1.2l-2.5,5.7c-.2.4-.3.7-.5.9-.2.2-.4.4-.7.5-.2,0-.5.1-.8.1ZM10.5,68.9l-2.4-5.5h1.3l1.9,4.6-.8.9Z"/>
              <path class="cls-4" d="M20.8,68.8c-.5,0-1,0-1.5-.3-.5-.2-.8-.4-1.2-.7-.3-.3-.6-.7-.8-1.1-.2-.4-.3-.9-.3-1.4s0-1,.3-1.4.4-.8.8-1.1c.3-.3.7-.6,1.2-.7.5-.2,1-.3,1.5-.3s1.1,0,1.6.3c.5.2.9.5,1.2.8l-.8.8c-.3-.3-.6-.5-.9-.6s-.7-.2-1-.2-.7,0-1,.2c-.3.1-.6.3-.8.5-.2.2-.4.5-.5.8-.1.3-.2.6-.2,1s0,.7.2,1c.1.3.3.6.5.8.2.2.5.4.8.5.3.1.6.2,1,.2s.7,0,1-.2c.3-.1.6-.3.9-.6l.7,1c-.4.3-.8.5-1.3.7-.5.1-1,.2-1.5.2ZM22.3,67.7v-2.6h1.2v2.8l-1.2-.2Z"/>
              <path class="cls-4" d="M25.2,68.7v-6.9h2.9c.6,0,1.1,0,1.6.3.4.2.8.5,1,.9s.4.8.4,1.3-.1.9-.4,1.3-.6.7-1,.9c-.4.2-1,.3-1.6.3h-2.1l.6-.6v2.6h-1.3ZM26.5,66.2l-.6-.6h2.1c.6,0,1-.1,1.3-.4.3-.2.4-.6.4-1s-.1-.8-.4-1c-.3-.2-.7-.4-1.3-.4h-2.1l.6-.6v4Z"/>
              <path class="cls-4" d="M32,66.4v-1h2.7v1h-2.7Z"/>
              <path class="cls-4" d="M39.5,68.8c-.5,0-1,0-1.5-.3-.5-.2-.9-.4-1.2-.7-.3-.3-.6-.7-.8-1.1s-.3-.9-.3-1.4,0-1,.3-1.4c.2-.4.4-.8.8-1.1.3-.3.7-.6,1.2-.7s1-.3,1.5-.3,1,0,1.5.3c.5.2.8.4,1.2.7.3.3.6.7.8,1.1.2.4.3.9.3,1.4s0,1-.3,1.4c-.2.4-.4.8-.8,1.1s-.7.6-1.2.7c-.5.2-.9.3-1.5.3ZM39.5,67.6c.3,0,.7,0,1-.2s.6-.3.8-.5c.2-.2.4-.5.5-.8.1-.3.2-.6.2-1s0-.7-.2-1c-.1-.3-.3-.6-.5-.8-.2-.2-.5-.4-.8-.5-.3-.1-.6-.2-1-.2s-.7,0-1,.2c-.3.1-.6.3-.8.5-.2.2-.4.5-.5.8-.1.3-.2.6-.2,1s0,.7.2,1c.1.3.3.6.5.8.2.2.5.4.8.5.3.1.6.2,1,.2Z"/>
              <path class="cls-4" d="M44.6,68.7v-6.9h1.1l4.4,5.3h-.5v-5.3h1.3v6.9h-1.1l-4.4-5.3h.5v5.3h-1.3Z"/>
              <path class="cls-4" d="M52.6,68.7v-6.9h1.3v5.8h3.6v1.1h-4.9Z"/>
              <path class="cls-4" d="M58.6,68.7v-6.9h1.3v6.9h-1.3Z"/>
              <path class="cls-4" d="M61.7,68.7v-6.9h1.1l4.4,5.3h-.5v-5.3h1.3v6.9h-1.1l-4.4-5.3h.5v5.3h-1.3Z"/>
              <path class="cls-4" d="M71.1,67.6h3.9v1.1h-5.2v-6.9h5.1v1.1h-3.8v4.8ZM71,64.6h3.4v1.1h-3.4v-1.1Z"/>
            </g>
          </g>
          <g id="logo_修正">
            <g class="cls-6">
              <g id="_グループ_46" data-name="グループ_46">
                <path id="_パス_218" data-name="パス_218" class="cls-4" d="M24.7,43.5c0,.2-.1.3-.2.5-.6,2.1-2.2,3.8-4.2,4.6-.2-.4-.5-.8-.9-1.1,1.8-.5,3.2-1.9,3.7-3.6h-2c-.5.7-1,1.4-1.7,1.9-.3-.4-.7-.7-1.1-.9.8-.6,1.5-1.4,2-2.3.2-.3.3-.6.3-.9l1.4.3c0,0,0,0,0,.2,0,0,0,0,0,.1,0,0,0,.1,0,.2,0,.1,0,.2,0,.2,0,0,0,0,0,.1h1.7s.2,0,.2,0c-.1-.3-.3-.5-.4-.7l.7-.2c.3.3.5.7.6,1.1h-.2c0,0,.4.6.4.6ZM25,41.4c.3.3.5.7.6,1.1l-.7.3c-.2-.4-.4-.8-.6-1.1l.7-.2Z"/>
                <path id="_パス_219" data-name="パス_219" class="cls-4" d="M46.6,47.7v.5h-1.4c0-.4,0-.8,0-1.2v-3.8c0-.3,0-.6,0-.9.3,0,.6,0,.9,0h4c.3,0,.6,0,.9,0,0,.3,0,.5,0,.9v3.8c0,.4,0,.8,0,1.2h-1.4v-.5h-3.2ZM49.8,43.5h-3.2v3h3.2v-3Z"/>
                <path id="_パス_220" data-name="パス_220" class="cls-4" d="M76.6,42.9c.2,0,.4,0,.6,0l.6.6c0,.1-.1.3-.1.5,0,.7-.3,1.4-.6,2.1-.4.9-1.1,1.6-1.9,2-.5.3-1,.5-1.5.7-.2-.5-.5-.9-.8-1.3.9-.1,1.7-.5,2.4-1.1.6-.6.9-1.3,1-2.1h-3.2v.7c0,.3,0,.5,0,.8h-1.4c0-.3,0-.5,0-.8v-1c0-.3,0-.5,0-.8.3,0,.6,0,.9,0h1.3v-.5c0-.2,0-.5,0-.7h1.4c0,.2,0,.5,0,.7v.5h1.3Z"/>
                <path id="_パス_221" data-name="パス_221" class="cls-4" d="M103.8,43.2h0c0,0,0,0,0,.1v.2c-.5,2.3-2.2,4.1-4.3,5-.2-.5-.5-.9-.9-1.3,1.8-.5,3.3-1.9,3.8-3.7h-3.1c-.4,0-.8,0-1.2,0v-1.3c.4,0,.8,0,1.3,0h3.8c0-.5.4-.8.8-.8.5,0,.8.4.8.8,0,.5-.4.8-.8.8h0ZM103.3,42.4c0,.2.2.4.4.4s.4-.2.4-.4-.2-.4-.4-.4h0c-.2,0-.4.2-.4.4"/>
                <path id="_パス_222" data-name="パス_222" class="cls-4" d="M126.3,42c0,.3,0,.6,0,.9v4c1.4-.3,2.6-1.2,3.3-2.5.3.4.6.8,1,1.1-1,1.6-2.8,2.7-4.7,2.9-.2,0-.3,0-.4.1l-.7-.8c0-.2.1-.4,0-.6v-4.2s0-.1,0-.1c0-.3,0-.5,0-.8h1.5Z"/>
                <path id="_パス_223" data-name="パス_223" class="cls-4" d="M156.7,42.5c-.1,0-.2.2-.3.3-.5.6-1.1,1.1-1.7,1.5v2.9c0,.4,0,.8,0,1.2h-1.4c0-.4,0-.8,0-1.2v-2.1c-.8.5-1.6.8-2.5,1.1-.2-.4-.4-.8-.7-1.2,1.4-.4,2.8-1,4-1.9.5-.4,1-.8,1.4-1.4l1.2.8Z"/>
                <path id="_パス_224" data-name="パス_224" class="cls-4" d="M182.3,48.4c-.6-.8-1.3-1.5-2.1-2.1-.8.9-1.7,1.6-2.8,2-.2-.4-.5-.8-.8-1.2.9-.3,1.7-.8,2.4-1.5.7-.6,1.2-1.4,1.5-2.2h-1.9c-.4,0-.8,0-1.2.1v-1.3c.2,0,.5,0,.7,0,0,0,.2,0,.4,0h2.6c.2,0,.4,0,.6-.1l.7.7c-.1.1-.2.3-.3.4-.3.7-.6,1.4-1.1,2,.9.6,1.6,1.3,2.4,2l-1,1.1Z"/>
                <path id="_パス_225" data-name="パス_225" class="cls-4" d="M14,24.3h3.8l-1.5,7.4c-2,1.4-4.4,2.2-6.9,2.2-5.4,0-8.9-3.2-8.9-7.8s4.5-10.8,11.3-10.8,6,1.1,7.5,3.1l-3,2.4c-1.2-1.4-2.9-2.1-4.7-2-4.2,0-6.9,3-6.9,7s1.8,4.5,5.2,4.5c1,0,2-.2,3-.6l1.1-5.4Z"/>
                <path id="_パス_226" data-name="パス_226" class="cls-4" d="M31.6,28l3.1,5.5h-4.4l-2.8-5h-3.5l-1,5h-4.2l3.6-18h7.3c4.5,0,7,2.1,7,5.6,0,3.2-2,6-5.1,6.9M32.6,21.6c0-1.7-1.2-2.6-3.4-2.6h-3.3l-1.3,6.2h3.5c2.7,0,4.4-1.3,4.4-3.7"/>
                <path id="_パス_227" data-name="パス_227" class="cls-4" d="M38.3,26.1c0-6.1,4.5-10.8,11.1-10.8s8.8,3.2,8.8,7.8-4.5,10.8-11.1,10.8-8.8-3.2-8.8-7.8M53.9,23.3c0-2.7-1.7-4.5-4.9-4.5s-6.5,3.2-6.5,7,1.7,4.5,4.9,4.5,6.5-3.2,6.5-7"/>
                <path id="_パス_228" data-name="パス_228" class="cls-4" d="M89.1,15.6l-9.5,18h-4.4l-1.6-12.1-6.5,12.1h-4.5l-2.3-18h4.1l1.6,12.6,6.7-12.6h3.8l1.5,12.7,6.8-12.7h4.1Z"/>
                <path id="_パス_229" data-name="パス_229" class="cls-4" d="M113.3,21.2c0,4.6-3.4,7.4-8.7,7.4h-4l-1,5h-4.2l3.6-18h7.3c4.5,0,7,2.1,7,5.6M109.1,21.6c0-1.7-1.2-2.6-3.3-2.6h-3.3l-1.3,6.2h3.5c2.7,0,4.3-1.3,4.3-3.7"/>
                <path id="_パス_230" data-name="パス_230" class="cls-4" d="M116.8,15.6h4.2l-2.9,14.6h9l-.7,3.4h-13.2l3.6-18Z"/>
                <path id="_パス_231" data-name="パス_231" class="cls-4" d="M139.9,29.7h-8.4l-2.3,3.8h-4.4l11.6-18h4.1l4.4,18h-4.2l-.8-3.8ZM139.3,26.6l-1.5-6.9-4.2,6.9h5.7Z"/>
                <path id="_パス_232" data-name="パス_232" class="cls-3" d="M152.4,19h-5.7l.7-3.4h15.7l-.7,3.4h-5.7l-2.9,14.6h-4.2l2.9-14.6Z"/>
                <path id="_パス_233" data-name="パス_233" class="cls-3" d="M181.7,15.6l-3.6,18h-4.2l1.5-7.3h-8.1l-1.5,7.3h-4.2l3.6-18h4.2l-1.4,7.1h8.1l1.4-7.1h4.2Z"/>
                <path id="_パス_234" data-name="パス_234" class="cls-5" d="M51.9,24.9l-1.5-1.1c-1.1,1.8-3.5,2.5-4.6.9l-1.8,1.3c1,2,5.7,2.8,7.6-.3.8.2,1-.2,1-.2l-.8-.5Z"/>
                <path id="_パス_235" data-name="パス_235" class="cls-3" d="M194.8,33.6h4.5l-4.9-9.1-2.7,3,3.2,6.1Z"/>
                <path id="_パス_236" data-name="パス_236" class="cls-3" d="M189.8,24.3l2.8-2.9-3-5.8h-4.4l4.6,8.6Z"/>
                <path id="_パス_237" data-name="パス_237" class="cls-5" d="M180.6,33.6h5l16.4-18h-4.7l-16.6,18Z"/>
                <rect id="_長方形_25" data-name="長方形_25" class="cls-4" x="89" y="23.4" width="4.1" height="4.1"/>
              </g>
            </g>
          </g>
        </g>
        <path id="_パス_63578" data-name="パス_63578" class="cls-4" d="M126.4,7.8c-.6,0-1.1.2-1.7.2-.5,0-1,0-1.5,0-.4,0-.8-.1-1.2-.3-.3-.1-.6-.3-.8-.6-.2-.3-.3-.6-.3-1,0-.5.2-1,.6-1.3.4-.4.9-.7,1.5-1-.1-.3-.2-.6-.3-.9,0-.4-.1-.8-.1-1.2,0-.4,0-.9,0-1.3h1.2c0,.4,0,.7,0,1.1,0,.4,0,.8,0,1.1,0,.3,0,.6.2.9.3,0,.6-.2,1-.3.3,0,.7-.2,1-.3l.2,1.1c-.5,0-1,.2-1.5.3-.5.1-.9.3-1.3.5-.3.1-.7.3-.9.6-.2.2-.3.4-.3.7,0,.3.1.5.4.6.3.2.7.3,1,.3.5,0,1,0,1.5,0,.6,0,1.2-.2,1.8-.3,0,.2-.1.4-.1.6,0,.2,0,.4,0,.6ZM136.6,8.2c-.6,0-1.2-.2-1.6-.6-.4-.4-.7-1-.6-1.6,0,0,0-.2,0-.3,0-.1,0-.3,0-.4-.4,0-.8-.1-1.1-.2-.3,0-.6-.1-.8-.2l.2-1c.2,0,.5.2.8.2.3,0,.7.1,1.1.2,0-.2,0-.4,0-.6s0-.4,0-.7c-.3,0-.6-.1-.9-.2-.3,0-.5,0-.7-.1l.2-1c.2,0,.4.1.6.2.3,0,.6.1.9.2,0-.4,0-.8.1-1.1,0-.3,0-.5,0-.7l1.1.2c0,.2,0,.4-.1.7,0,.3,0,.7-.2,1,.2,0,.4,0,.6,0,.2,0,.3,0,.5,0l-.2,1c-.1,0-.3,0-.4,0s-.4,0-.6,0c0,.2,0,.4,0,.6s0,.4,0,.6c.2,0,.5,0,.7,0,.2,0,.4,0,.5,0v1c-.3,0-.5,0-.7,0-.2,0-.4,0-.6,0,0,.1,0,.2,0,.3,0,0,0,.2,0,.3,0,.3,0,.6.3.9.2.2.6.3.9.3.3,0,.7,0,1-.3.2-.2.4-.5.4-.8,0-.3-.1-.7-.3-1-.2-.4-.5-.7-.9-.9.2,0,.4,0,.5-.2.1,0,.3-.1.4-.2.4.3.7.7,1,1.1.2.4.3.8.3,1.2,0,.4,0,.8-.3,1.2-.2.3-.5.6-.9.7-.4.2-.8.3-1.3.3ZM144.8,7.8c0-.3,0-.6-.1-.9,0-.4,0-.8,0-1.2,0-.4,0-.9,0-1.3,0-.5,0-.9,0-1.3,0-.4,0-.8.1-1.2,0-.3,0-.6.2-1l1.1.2c0,.3-.1.6-.2.9,0,.4,0,.7-.1,1.2,0,.4,0,.8,0,1.3,0,.4,0,.9,0,1.3,0,.4,0,.8,0,1.1,0,.3,0,.5.1.8l-1.1.2ZM148.7,7.3c-1.1,0-1.7-.4-1.8-1,0-.2,0-.4,0-.5,0-.2,0-.5.1-.7l1,.2c0,0,0,.2,0,.3,0,0,0,.2,0,.2,0,.2.4.3,1,.4.3,0,.6,0,.9,0,.3,0,.6,0,.9-.1.3,0,.5-.1.8-.2,0,0,0,.2,0,.3s0,.3,0,.4c0,.1,0,.3,0,.4-.3,0-.6.1-.9.2-.3,0-.6,0-1,0s-.6,0-.8,0ZM147.3,2.8v-1.1c.2,0,.5,0,.8,0,.3,0,.7,0,1,0,.4,0,.7,0,1,0,.3,0,.6,0,.8-.2v1.1c-.3,0-.6,0-.9.1-.3,0-.7,0-1,0-.3,0-.7,0-1,0s-.6,0-.8,0ZM160.4,8.3c0-.1-.2-.3-.3-.4-.1-.1-.2-.3-.3-.4.4-.2.8-.4,1.1-.7.3-.3.6-.5.9-.9-.2-.5-.4-1-.5-1.5-.2-.6-.3-1.3-.3-1.9h-2.4v.9h2.1c0,.3,0,.7,0,1s0,.6,0,.9c0,.3,0,.5-.1.8,0,.3-.2.7-.5.9-.3.2-.6.3-1,.2h-.5c0-.1,0-.2,0-.4,0-.1,0-.3,0-.4,0-.1,0-.2,0-.3h.5c.2,0,.3,0,.4-.1,0,0,.1-.2.2-.4,0-.2,0-.4,0-.6,0-.2,0-.5,0-.7h-1.1c0,.5,0,1.1-.2,1.6,0,.4-.2.8-.4,1.2-.1.3-.3.7-.5,1-.1,0-.2-.1-.3-.2-.1,0-.3-.1-.4-.2-.1,0-.2,0-.3-.1.3-.3.4-.7.6-1.1.2-.5.3-1,.3-1.5,0-.7,0-1.3,0-2v-1.6h3.5c0-.2,0-.5,0-.7s0-.5,0-.8h1.1c0,.3,0,.5,0,.8,0,.3,0,.5,0,.7h1.4c-.1-.2-.3-.3-.5-.4-.1-.1-.3-.2-.5-.4l.7-.7c.2.1.3.2.5.3.2.1.3.3.5.4.1.1.2.2.4.4,0,0-.1,0-.2.1,0,0-.1.1-.2.2h.9v1h-2.8c0,.8.2,1.6.5,2.3.3-.6.6-1.2.8-1.9l1,.3c-.3,1-.7,1.9-1.3,2.7.3.4.6.7,1,1,0-.2.1-.4.2-.5,0-.2,0-.3,0-.5,0,0,.2.1.3.2.1,0,.3.1.4.2s.2,0,.3.1c0,.3-.1.6-.2.9,0,.3-.2.5-.3.7,0,.2-.2.3-.4.3-.2,0-.4,0-.6-.1-.3-.2-.5-.3-.8-.6-.3-.2-.5-.5-.7-.8-.3.3-.6.6-.9.8-.3.2-.7.5-1.1.6ZM177.5,8.4c-.6-.1-1.2-.4-1.7-.6-.5-.3-1-.7-1.4-1.1-.4-.5-.7-1-.9-1.6h-1v1.9c.4,0,.7-.1,1.1-.2s.6-.1.8-.2v.9c-.2,0-.4.1-.7.2-.3,0-.6.1-.9.2-.3,0-.7.1-1,.2-.3,0-.6.1-.9.2-.3,0-.5,0-.6.1l-.3-1c.1,0,.3,0,.6,0s.6,0,.9-.1v-2.1h-1.7v-.9h1.7V.2h5.7v.9h-4.6v.5h4.2v.8h-4.2v.5h4.2v.8h-4.2v.5h5.6v.9h-1.4l.6.6c-.2.1-.4.3-.6.5-.3.2-.5.4-.7.5.3.2.7.4,1,.5.4.1.7.2,1.1.3,0,0-.2.2-.2.3,0,.1-.1.2-.2.4,0,.1-.1.2-.1.3ZM175.2,6.1c.1,0,.3-.2.4-.3.2-.1.3-.2.5-.3.2-.1.3-.2.4-.3h-2c.2.4.4.7.7,1ZM185.4,8.3c0-.1-.2-.3-.3-.4-.1-.2-.3-.3-.4-.4.5-.1,1-.3,1.5-.6.3-.2.6-.5.7-.9-.2,0-.4.1-.6.1-.4,0-.8-.1-1.1-.4-.3-.3-.5-.7-.5-1.1,0-.3,0-.6.2-.8.1-.2.3-.4.6-.6.3-.1.5-.2.8-.2,0,0,0,0,.1,0s0,0,.1,0c0-.1,0-.2,0-.3,0-.1,0-.2,0-.4-.5,0-1,0-1.4,0s-.9,0-1.3.1c-.3,0-.6,0-1,.2l-.2-1.1c.2,0,.5,0,.9,0,.4,0,.8,0,1.4,0,.5,0,1,0,1.6,0V.2h1.1v1.2h1.4c.4,0,.8,0,1.2,0,.3,0,.6,0,.8,0v1.1c-.4,0-.9,0-1.5,0-.6,0-1.2,0-1.9,0,0,.2,0,.4,0,.7,0,.2,0,.4,0,.6.3.4.5.9.4,1.4,0,.7-.2,1.5-.7,2-.5.6-1.2,1-2,1.2ZM186.3,5.2c.2,0,.3,0,.4-.2,0-.1.2-.3.1-.4,0,0,0-.1,0-.2,0,0,0-.1,0-.2-.1-.1-.3-.2-.5-.2-.2,0-.3,0-.4.2-.1.1-.2.3-.2.4,0,.2,0,.3.2.4.1.1.3.2.4.2ZM199.2,8c-.6,0-1.1-.1-1.6-.4-.3-.2-.5-.6-.5-1,0-.2,0-.5.2-.7.1-.2.3-.3.5-.4.2-.1.4-.2.7-.2.4,0,.8.1,1.1.4.3.3.5.6.5,1,.2-.1.4-.3.6-.5.1-.2.2-.5.2-.8,0-.2,0-.5-.2-.7-.1-.2-.3-.4-.5-.5-.2-.1-.5-.2-.8-.2-.4,0-.7,0-1.1.1-.3,0-.6.3-.8.5-.1,0-.3.2-.4.4-.2.2-.3.3-.5.4l-.8-.8c.3-.2.6-.4.9-.6.3-.2.6-.5.9-.8.3-.3.6-.6.9-.9.3-.3.5-.6.8-.9-.3,0-.5.1-.9.2-.3,0-.6.1-.9.1-.3,0-.5,0-.7,0l-.2-1c.2,0,.4,0,.6,0,.2,0,.5,0,.8,0,.3,0,.6,0,.8-.1.3,0,.5,0,.7-.1.2,0,.3,0,.5-.1l.8.5c-.2.5-.5.9-.9,1.3-.4.5-.8.9-1.2,1.3.1,0,.2,0,.3-.1.1,0,.2,0,.4,0,.4,0,.9,0,1.3.3.3.2.6.4.8.8.2.3.3.7.3,1.1,0,.4-.1.9-.3,1.2-.2.4-.6.7-1,.9-.5.2-1,.3-1.5.3ZM199.1,7c0-.2,0-.4-.2-.6-.1-.1-.3-.2-.4-.2,0,0-.2,0-.2,0,0,0-.1.1-.1.2,0,.1,0,.3.2.3.2.1.5.2.7.1,0,0,0,0,0,0h0Z"/>
        <path id="_パス_63579" data-name="パス_63579" class="cls-4" d="M6.1,8.2c0-.2,0-.3-.2-.5,0-.2-.2-.3-.3-.5.6,0,1.2-.3,1.7-.7.4-.3.6-.8.6-1.3,0-.3,0-.6-.2-.8-.2-.2-.4-.4-.6-.5-.4.8-1,1.5-1.6,2.2,0,.1,0,.2.1.3s0,.2.1.3c-.1,0-.2,0-.3.1-.1,0-.2.1-.4.2,0,0-.2,0-.3.2,0,0,0-.1,0-.2,0,0,0-.1,0-.2-.3.2-.6.4-1,.5-.3,0-.6.1-.9,0-.2,0-.4-.2-.6-.3-.2-.2-.3-.6-.3-.9,0-.4,0-.9.3-1.2.2-.4.5-.7.8-1,.3-.3.7-.6,1.2-.7,0-.2,0-.4,0-.5s0-.4,0-.5c-.4,0-.7,0-1,0-.3,0-.5,0-.8,0v-1c.2,0,.4,0,.8,0s.7,0,1.1,0c0-.2,0-.4,0-.6,0-.2,0-.4,0-.6l1,.2c0,.3-.1.6-.2.9.5,0,.9-.1,1.3-.2.4,0,.7-.2,1-.3v1c-.3.1-.7.2-1,.3-.5,0-.9.1-1.4.2,0,.1,0,.3,0,.4v.4c.3,0,.5,0,.8,0,0,0,.2,0,.3,0,0,0,.2,0,.3,0,0-.1,0-.2.1-.4,0-.1,0-.2.1-.4l1,.3c0,.1,0,.2-.1.3s0,.2-.1.3c.4.2.8.5,1.1.8.3.4.4.8.4,1.3,0,.5-.1,1-.4,1.4-.3.4-.6.7-1,1-.5.3-1,.4-1.6.5ZM3.4,6.5c.1,0,.3-.1.4-.2.2-.1.3-.2.5-.4,0-.3,0-.5-.1-.8,0-.3,0-.6,0-.8-.4.2-.7.5-.9.8-.2.3-.3.6-.3,1,0,.2,0,.3.1.3.1,0,.3,0,.4,0h0ZM5.3,5.1c.1-.2.3-.4.4-.6.1-.2.3-.4.4-.7h-.1c-.1,0-.3,0-.4,0-.1,0-.3,0-.4,0,0,.4,0,.8.1,1.1ZM16.3,8.3c-.1-.2-.2-.3-.4-.5-.1-.2-.3-.3-.5-.4.8-.3,1.5-.8,1.9-1.5.5-.7.7-1.6.7-2.4,0-.4,0-.9-.3-1.2-.2-.2-.5-.3-.7-.3-.3,0-.5.2-.6.4-.2.3-.4.7-.4,1,0,.5,0,1.1,0,1.7-.1,0-.2,0-.3,0-.1,0-.3,0-.4,0,0,0-.2,0-.3,0,0-.3,0-.6-.1-.9,0-.3,0-.7,0-1.1s0-.8,0-1.2c0-.4,0-.8,0-1.1,0-.3,0-.6,0-.8h1.1c0,.2,0,.4,0,.7,0,.2,0,.5,0,.7,0,.3,0,.5,0,.7.1-.4.3-.7.6-1,.2-.2.5-.4.9-.4.4,0,.7,0,1,.3.3.2.6.5.7.8.2.4.3.9.3,1.4,0,1-.2,2.1-.8,2.9-.5.8-1.3,1.4-2.2,1.9ZM26,7.9c0,0-.2-.1-.3-.2-.1,0-.2-.2-.4-.2,0,0-.2-.1-.3-.1.3-.3.5-.6.7-1,.2-.4.5-.8.7-1.3.2-.5.4-.9.6-1.4-.3,0-.6,0-.9.1-.3,0-.5,0-.7.1,0,0,0-.2,0-.3,0-.1,0-.3,0-.4,0,0,0-.2,0-.3h.5c0,0,.8-.1.8-.1.3,0,.5,0,.8,0,.1-.4.2-.8.3-1.1,0-.3.1-.7.1-1l1.1.2c0,.3,0,.6-.1.9,0,.3-.1.6-.2,1,.1,0,.2,0,.3,0,0,0,.2,0,.3,0,.2,0,.4,0,.7.1.2,0,.4.2.5.4.1.2.2.5.2.8,0,.4,0,.9-.1,1.3,0,.5-.2,1-.4,1.5-.1.3-.3.6-.6.8-.3.2-.6.2-.9.2-.3,0-.7,0-1-.2,0-.1,0-.3,0-.5,0-.2,0-.3,0-.5.3.1.6.2.9.2.1,0,.3,0,.4-.1.1-.1.2-.3.3-.5.1-.4.2-.7.3-1.1,0-.3.1-.7.1-1,0-.2,0-.3-.2-.4-.1,0-.2-.1-.4-.1-.2,0-.4,0-.6,0-.2.6-.4,1.1-.6,1.7-.2.6-.5,1.1-.8,1.5-.2.4-.5.8-.8,1.2ZM32.7,5.5c-.1-.2-.3-.4-.4-.6-.2-.2-.4-.5-.6-.7s-.4-.4-.6-.6c-.2-.2-.3-.3-.5-.4l.8-.7c.2.1.4.3.5.4.2.2.4.4.6.6.2.2.4.4.6.6.1.2.3.4.4.6l-.9.8ZM33.1,1.8c-.2-.2-.4-.3-.6-.5-.2-.1-.4-.3-.6-.4l.4-.5c.1,0,.2.1.4.2s.3.2.5.3c.1,0,.3.2.4.3l-.4.5ZM32.4,2.7c-.2-.2-.4-.3-.6-.5-.2-.1-.4-.3-.6-.4l.4-.5c.1,0,.3.1.4.2.2.1.3.2.5.3.1,0,.3.2.4.3l-.4.5ZM44.7,7.8c-.6,0-1.1.2-1.7.2-.5,0-1,0-1.5,0-.4,0-.8-.1-1.2-.3-.3-.1-.6-.3-.8-.6-.2-.3-.3-.6-.3-1,0-.5.2-1,.6-1.3.4-.4.9-.7,1.5-1-.1-.3-.2-.6-.3-.9,0-.4-.1-.8-.1-1.2,0-.4,0-.9,0-1.3h1.2c0,.4,0,.7,0,1.1,0,.4,0,.8,0,1.1,0,.3,0,.6.2.9.3,0,.6-.2,1-.3.3,0,.7-.2,1-.3l.2,1.1c-.5,0-1,.2-1.5.3-.5.1-.9.3-1.3.5-.3.1-.7.3-.9.6-.2.2-.3.4-.3.7,0,.3.1.5.4.6.3.2.7.3,1,.3.5,0,1,0,1.5,0,.6,0,1.2-.2,1.8-.3,0,.2-.1.4-.1.6,0,.2,0,.4,0,.6ZM54.2,8.4c0,0-.2-.2-.3-.2-.1,0-.3-.1-.4-.2-.1,0-.3-.1-.4-.1.4-.2.8-.5,1.1-.9.3-.4.6-.8.8-1.2.2-.4.3-.9.3-1.4,0-.2,0-.5-.2-.7-.2-.1-.4-.2-.6-.2-.3,0-.6,0-.8.1-.3,0-.6.2-.8.3-.2.1-.5.2-.7.4,0-.1,0-.2-.2-.3,0-.1-.2-.3-.2-.4,0-.1-.2-.2-.2-.3.5-.2.9-.4,1.4-.6.5-.2,1-.3,1.6-.3.3,0,.7,0,1,.2.3.1.5.4.7.7.2.3.3.7.3,1,0,.6,0,1.1-.3,1.6-.2.5-.4,1-.8,1.4-.3.4-.7.8-1.1,1ZM55.3,1.9c-.1,0-.3,0-.6-.2s-.5-.2-.7-.2c-.3,0-.5-.2-.7-.3-.2,0-.4-.2-.5-.2l.5-.9c.1,0,.3.1.5.2s.4.2.7.2c.2,0,.5.2.7.2.2,0,.4.1.6.1l-.4,1ZM67,8.2c-.5,0-.9,0-1.4-.1-.4,0-.7-.2-1-.5-.2-.2-.4-.5-.3-.9,0-.3,0-.6.3-.8.2-.3.4-.5.7-.7.3-.2.7-.4,1.1-.5h0c0-.2,0-.4-.2-.5-.1-.1-.3-.2-.4-.2-.3,0-.5,0-.8.1-.3.1-.6.3-.8.5,0,0-.2.2-.3.3-.1.1-.2.2-.3.3s-.2.2-.3.3l-.8-.8c.4-.3.9-.7,1.2-1.1.4-.4.7-.9,1-1.4h-.9c-.3,0-.5,0-.6,0v-1.1c.2,0,.5,0,.8,0s.8,0,1.2,0c.1-.4.2-.7.2-1.1h1.1c0,.4,0,.7-.2,1.1.5,0,.9,0,1.3-.1.3,0,.6,0,.9-.2v1c-.1,0-.3,0-.6,0-.3,0-.6,0-.9,0s-.7,0-1,0c0,.2-.2.3-.3.5-.1.2-.2.3-.3.5.2,0,.5-.1.7-.1.3,0,.6,0,.9.3.3.2.4.6.5.9.3-.1.7-.2,1-.3.4,0,.7-.2,1-.3l.3,1c-.4,0-.8.1-1.2.2-.4,0-.8.2-1.1.3v1.2h-1.1v-.8c-.3.1-.5.3-.7.5-.2.1-.3.3-.3.4,0,.2.1.4.4.4.4,0,.8.1,1.1.1.2,0,.5,0,.7,0,.3,0,.5,0,.8-.1.3,0,.5,0,.7-.2,0,0,0,.2,0,.3,0,.1,0,.3,0,.4s0,.3,0,.3c-.3,0-.7.1-1,.2-.3,0-.7,0-1,0ZM78.6,7.2c0-.1,0-.3-.1-.4,0-.1-.1-.3-.2-.4,0-.1-.1-.2-.2-.3.7,0,1.4-.2,2.1-.3.5-.1,1-.3,1.3-.7.3-.2.5-.6.4-1,0-.9-.7-1.3-1.9-1.2-.2,0-.5,0-.7,0-.3,0-.6,0-.9.2s-.6.1-1,.2c-.3,0-.6.2-.9.3-.2,0-.5.2-.7.3,0,0,0,0,0-.2s-.1-.3-.2-.4l-.2-.4c0,0,0-.1,0-.2.2,0,.4,0,.7-.2.3,0,.6-.1,1-.2.4,0,.7-.1,1.1-.2.4,0,.7-.1,1-.2.3,0,.5,0,.8,0,.6,0,1.2,0,1.7.2.4.1.8.4,1,.8.2.4.4.8.4,1.2,0,.4,0,.9-.3,1.3-.2.4-.5.7-.9.9-.4.3-.9.5-1.4.6-.6.2-1.2.3-1.8.4ZM92.4,8.4c-.1-.3-.3-.5-.4-.8-.2-.3-.4-.6-.6-.9-.2-.3-.4-.6-.7-.9-.2-.3-.4-.5-.7-.8s-.4-.4-.5-.5c-.2-.1-.3-.3-.3-.5,0-.2.1-.4.3-.5.2-.1.3-.3.5-.5.2-.2.4-.4.6-.7s.4-.5.7-.8c.2-.3.4-.5.6-.8.2-.2.3-.4.4-.7l1,.7c-.1.2-.3.4-.6.7-.2.3-.5.5-.8.8-.3.3-.5.6-.8.8-.3.3-.5.5-.6.6-.1.1-.1.3,0,.4,0,0,0,0,0,0,.1.1.3.3.5.5.2.2.4.5.6.7.2.3.4.5.7.8s.4.5.6.8.3.4.4.6c-.1,0-.2.1-.4.2-.1,0-.3.2-.4.3-.1,0-.2.1-.3.2ZM102.2,8.3c-.1-.2-.2-.3-.4-.5-.1-.2-.3-.3-.5-.4.8-.3,1.5-.8,1.9-1.5.5-.7.7-1.6.7-2.4,0-.4,0-.9-.3-1.2-.2-.2-.5-.3-.7-.3-.3,0-.5.2-.6.4-.2.3-.4.7-.4,1,0,.5,0,1.1,0,1.7-.1,0-.2,0-.3,0-.1,0-.3,0-.4,0,0,0-.2,0-.3,0,0-.3,0-.6-.1-.9,0-.3,0-.7,0-1.1s0-.8,0-1.2c0-.4,0-.8,0-1.1,0-.3,0-.6,0-.8h1.1c0,.2,0,.4,0,.7,0,.2,0,.5,0,.7,0,.3,0,.5,0,.7.1-.4.3-.7.6-1,.2-.2.5-.4.9-.4.4,0,.7,0,1,.3.3.2.6.5.7.8.2.4.3.9.3,1.4,0,1-.2,2-.8,2.9-.5.8-1.3,1.4-2.2,1.9ZM112.7,8.2c-.1-.2-.3-.4-.5-.6-.2-.2-.4-.4-.6-.6-.2-.2-.4-.4-.6-.5l.7-.6c.2.1.3.2.5.4.2.1.3.3.5.5.2.2.3.3.5.5.1.2.3.3.4.4l-.8.7Z"/>
      </g>
    </g>
  </g>
</svg>