<?xml version="1.0" encoding="UTF-8"?>
<svg xmlns="http://www.w3.org/2000/svg" width="268.4" height="44.5" version="1.1" viewBox="0 0 268.4 44.5">
  <defs>
    <style>
      .cls-1 {
        fill: #b7bcbf;
      }

      .cls-2 {
        fill: #ffc92a;
      }
    </style>
  </defs>
  <!-- Generator: Adobe Illustrator 28.7.1, SVG Export Plug-In . SVG Version: 1.2.0 Build 142)  -->
  <g>
    <g id="Layer_1">
      <g id="_グループ_47" data-name="グループ_47">
        <g id="_グループ_46" data-name="グループ_46">
          <path id="_パス_218" data-name="パス_218" d="M31.5,37.6c-.1.2-.2.4-.3.7-.9,3-2.6,4.9-5.6,6.2-.3-.6-.7-1.1-1.2-1.5,2.6-.9,4.3-2.5,5-4.9h-2.7c-.6,1-1.4,1.8-2.3,2.5-.4-.5-.9-.9-1.4-1.2,1.1-.8,2-1.8,2.7-3,.2-.4.4-.8.4-1.2l1.9.3c0,0,0,.1-.1.2,0,0,0,0,0,.2,0,0,0,.2,0,.2,0,.2-.1.3-.1.3,0,0,0,.1,0,.2h2.3s.2,0,.2,0c-.2-.3-.4-.7-.6-1l1-.3c.4.5.6,1,.8,1.5h-.3c0,.1.5.8.5.8ZM31.8,34.8c.3.5.6,1,.8,1.5l-.9.3c-.2-.5-.5-1.1-.8-1.5l.9-.3Z"/>
          <path id="_パス_219" data-name="パス_219" d="M60.8,43.3v.7h-1.8c0-.5,0-1.1,0-1.6v-5.1c0-.4,0-.7,0-1.1.4,0,.8,0,1.2,0h5.4c.4,0,.8,0,1.2,0,0,.3,0,.7,0,1.2v5.1c0,.6,0,1.1,0,1.6h-1.8v-.7h-4.3ZM65.1,37.7h-4.3v4h4.3v-4Z"/>
          <path id="_パス_220" data-name="パス_220" d="M100.8,36.8c.3,0,.6,0,.8-.1l.8.8c-.1.2-.2.4-.2.6,0,1-.4,1.9-.8,2.8-.6,1.1-1.5,2.1-2.6,2.7-.6.4-1.3.7-2,.9-.3-.6-.6-1.2-1.1-1.7,1.5-.3,2.5-.8,3.2-1.5.8-.8,1.3-1.8,1.3-2.9h-4.3v.9c0,.4,0,.7,0,1.1h-1.9c0-.4,0-.7,0-1.1v-1.4c0-.4,0-.7,0-1.1.4,0,.8,0,1.2,0h1.8v-.6c0-.3,0-.6,0-.9h1.9c0,.3,0,.6,0,.9v.6h1.8Z"/>
          <path id="_パス_221" data-name="パス_221" d="M137.1,37.3h0c0,0,0,.1,0,.1v.3c-.9,3.2-2.6,5.2-5.8,6.6-.3-.6-.7-1.2-1.3-1.7,2.7-.8,4.5-2.6,5-4.9h-4.2c-.6,0-1.1,0-1.6,0v-1.8c.6,0,1.1.1,1.7,0h5.1c0-.6.5-1.1,1.1-1.1.6,0,1.1.5,1.1,1.1,0,.6-.5,1.1-1.1,1.1h0ZM136.5,36.1c0,.3.3.6.6.6s.6-.3.6-.6-.3-.6-.6-.6h0c-.3,0-.6.3-.6.6"/>
          <path id="_パス_222" data-name="パス_222" d="M167.2,35.6c0,.4,0,.8,0,1.2v5.3c1.9-.4,3.5-1.6,4.4-3.4.4.6.8,1,1.3,1.4-1.4,2.2-3.3,3.4-6.2,3.9-.2,0-.4,0-.6.2l-.9-1c.1-.3.1-.5.1-.8v-5.6s0-.2,0-.2c0-.4,0-.7,0-1.1h2Z"/>
          <path id="_パス_223" data-name="パス_223" d="M207.8,36.4c-.1.1-.3.2-.4.4-.7.7-1.5,1.4-2.3,2v3.8c0,.5,0,1.1,0,1.6h-1.9c0-.5,0-1.1,0-1.6v-2.8c-1,.6-2.1,1.1-3.3,1.5-.2-.6-.5-1.1-1-1.6,1.9-.5,3.7-1.4,5.3-2.6.7-.5,1.3-1.1,1.8-1.8l1.6,1.1Z"/>
          <path id="_パス_224" data-name="パス_224" d="M242.1,44.2c-.8-1.1-1.8-2-2.9-2.8-1,1.2-2.3,2.1-3.7,2.7-.3-.6-.7-1.1-1.1-1.6,1.2-.4,2.3-1.1,3.2-2,.9-.8,1.6-1.8,2-2.9h-2.6c-.5,0-1.1,0-1.6.1v-1.8c.3,0,.6,0,1,0,0,0,.3,0,.6,0h3.4c.3,0,.5,0,.8-.2l.9.9c-.2.2-.3.4-.4.6-.4,1-.9,1.9-1.5,2.7,1.1.8,2.2,1.7,3.2,2.7l-1.4,1.5Z"/>
          <path id="_パス_225" data-name="パス_225" d="M18,12h5.1l-2,9.9c-2.4,1.9-5.7,2.9-9.2,2.9-7.3,0-11.9-4.2-11.9-10.4S6,0,15.1,0s8,1.5,10,4.2l-4,3.2c-1.6-1.9-3.6-2.7-6.3-2.7-5.6,0-9.2,4-9.2,9.3s2.4,6,7,6c1.4,0,2.7-.3,4-.9l1.4-7.2Z"/>
          <path id="_パス_226" data-name="パス_226" d="M40.7,17l4.2,7.4h-5.9l-3.8-6.7h-4.7l-1.3,6.7h-5.6L28.4.4h9.8c6,0,9.4,2.7,9.4,7.4s-2.6,7.8-6.9,9.2M42,8.4c0-2.3-1.6-3.4-4.5-3.4h-4.4l-1.7,8.3h4.7c3.7,0,5.8-1.7,5.8-4.9"/>
          <path id="_パス_227" data-name="パス_227" d="M49.6,14.4c0-8.2,6-14.4,14.8-14.4s11.7,4.3,11.7,10.4-6,14.4-14.8,14.4-11.7-4.3-11.7-10.4M70.5,10.7c0-3.6-2.3-6-6.5-6s-8.7,4.3-8.7,9.4c0,3.6,2.3,6,6.5,6s8.7-4.3,8.7-9.4"/>
          <path id="_パス_228" data-name="パス_228" d="M117.5.4l-12.7,24h-5.9l-2.1-16.1-8.7,16.1h-6L79.1.4h5.5l2.1,16.9L95.7.4h5.1l2.1,17L112,.4h5.5Z"/>
          <path id="_パス_229" data-name="パス_229" d="M149.9,7.9c0,6.1-4.5,9.9-11.7,9.9h-5.3l-1.3,6.6h-5.6L130.8.4h9.7c6,0,9.4,2.8,9.4,7.5M144.3,8.4c0-2.3-1.6-3.4-4.5-3.4h-4.4l-1.7,8.3h4.7c3.7,0,5.8-1.7,5.8-4.9"/>
          <path id="_パス_230" data-name="パス_230" d="M154.5.4h5.6l-3.9,19.5h12l-.9,4.5h-17.6L154.5.4Z"/>
          <path id="_パス_231" data-name="パス_231" d="M185.4,19.3h-11.2l-3.1,5.1h-5.9L180.8.4h5.5l5.9,24h-5.6l-1.1-5.1ZM184.5,15.1l-2-9.3-5.7,9.3h7.7Z"/>
          <path id="_パス_232" data-name="パス_232" class="cls-1" d="M202.1,4.9h-7.7l.9-4.5h20.9l-.9,4.5h-7.6l-3.9,19.5h-5.6l3.9-19.5Z"/>
          <path id="_パス_233" data-name="パス_233" class="cls-1" d="M241.3.4l-4.8,24h-5.6l2-9.8h-10.9l-2,9.8h-5.6L219.3.4h5.6l-1.9,9.4h10.9l1.9-9.4h5.6Z"/>
          <path id="_パス_234" data-name="パス_234" class="cls-2" d="M67.8,12.8l-2-1.5c-1.4,2.4-4.7,3.4-6.1,1.2l-2.3,1.8c1.3,2.6,7.6,3.8,10.2-.4,1,.2,1.3-.3,1.3-.3l-1-.7Z"/>
          <path id="_パス_235" data-name="パス_235" class="cls-1" d="M258.8,24.4h6l-6.6-12.1-3.7,3.9,4.3,8.2Z"/>
          <path id="_パス_236" data-name="パス_236" class="cls-1" d="M252.1,12l3.7-3.8-4-7.7h-5.9l6.2,11.6Z"/>
          <path id="_パス_237" data-name="パス_237" class="cls-2" d="M239.8,24.4h6.7L268.4.4h-6.3l-22.2,24Z"/>
          <rect id="_長方形_25" data-name="長方形_25" x="117.4" y="10.8" width="5.5" height="5.5"/>
        </g>
      </g>
    </g>
  </g>
</svg>