<?xml version="1.0" encoding="UTF-8"?>
<svg xmlns="http://www.w3.org/2000/svg" width="369" height="35" version="1.1" viewBox="0 0 369 35">
  <defs>
    <style>
      .cls-1 {
        fill: #b7bcbf;
      }

      .cls-2 {
        fill: #ffc92a;
      }
    </style>
  </defs>
  <!-- Generator: Adobe Illustrator 28.7.1, SVG Export Plug-In . SVG Version: 1.2.0 Build 142)  -->
  <g>
    <g id="Layer_1">
      <g>
        <path id="_パス_17481" data-name="パス_17481" d="M294.9,22.8c.5,0,1,.1,1.4.4.4.2.8.6,1,1,.2.5.4,1,.4,1.5,0,.5-.1,1-.4,1.5-.2.4-.6.8-1,1-.4.2-.9.4-1.4.4-.4,0-.7,0-1-.2-.3-.1-.6-.3-.8-.6v.7h-1.2v-7.7h1.3v2.8c.2-.2.5-.4.8-.5.3-.1.6-.2,1-.2ZM294.8,27.3c.4,0,.9-.2,1.2-.5.3-.3.5-.8.5-1.2,0-.5-.1-.9-.5-1.2-.3-.3-.7-.5-1.2-.5-.3,0-.6,0-.8.2-.2.1-.5.4-.6.6-.1.3-.2.6-.2.9,0,.3,0,.6.2.9.1.3.3.5.6.6.3.1.5.2.8.2ZM304,22.8l-2.6,6c-.2.5-.5.9-.9,1.3-.4.3-.8.4-1.2.4-.3,0-.6,0-.8-.1-.2,0-.5-.2-.7-.4l.5-.9c.1.1.3.2.4.3.2,0,.3.1.5.1.2,0,.4,0,.6-.2.2-.2.3-.4.4-.6v-.2c0,0-2.3-5.5-2.3-5.5h1.3l1.7,4.1,1.7-4.1h1.2ZM312.7,24.6h1.3v2.9c-.4.3-.8.5-1.3.7-.5.2-1,.2-1.5.2-.7,0-1.4-.2-2-.5-.6-.3-1.1-.8-1.4-1.3-.3-.6-.5-1.2-.5-1.9,0-.7.2-1.3.5-1.9.3-.6.8-1,1.4-1.3.6-.3,1.3-.5,2-.5.6,0,1.1,0,1.7.3.5.2.9.5,1.2.9l-.8.8c-.5-.5-1.2-.8-2-.8-.5,0-.9.1-1.4.3-.4.2-.7.5-.9.9-.2.4-.3.9-.3,1.3,0,.5.1.9.3,1.3.2.4.5.7.9.9.4.2.9.3,1.3.3.5,0,1-.1,1.5-.4v-2.2ZM318.7,21.1c.6,0,1.1,0,1.6.3.4.2.8.5,1.1.9.3.4.4.9.4,1.4,0,.5-.1,1-.4,1.4-.3.4-.6.7-1.1.9-.5.2-1.1.3-1.6.3h-1.6v2.1h-1.3v-7.2h3ZM318.6,25.1c.5,0,.9,0,1.3-.4.3-.3.5-.7.5-1.1,0-.4-.1-.8-.5-1.1-.4-.3-.9-.4-1.3-.4h-1.6v2.9h1.6ZM322.8,24.9h2.8v1.1h-2.8v-1.1ZM330.6,28.4c-.7,0-1.4-.2-2-.5-.6-.3-1.1-.8-1.4-1.3-.3-.6-.5-1.2-.5-1.9,0-.7.2-1.3.5-1.9.3-.6.8-1,1.4-1.3.6-.3,1.3-.5,2-.5.7,0,1.4.2,2,.5.6.3,1.1.8,1.4,1.3.3.6.5,1.2.5,1.9,0,.7-.2,1.3-.5,1.9-.3.6-.8,1-1.4,1.3-.6.3-1.3.5-2,.5h0ZM330.6,27.3c.5,0,.9-.1,1.3-.3.4-.2.7-.5.9-.9.2-.4.3-.8.3-1.3,0-.5-.1-.9-.3-1.3-.2-.4-.5-.7-.9-.9-.4-.2-.8-.3-1.3-.3-.5,0-.9.1-1.3.3-.4.2-.7.5-.9.9-.2.4-.3.8-.3,1.3,0,.5.1.9.3,1.3.2.4.5.7.9.9.4.2.8.3,1.3.3h0ZM342.3,21.1v7.2h-1.1l-4-4.9v4.9h-1.3v-7.2h1.1l4,4.9v-4.9h1.3ZM344.2,21.1h1.3v6.1h3.8v1.1h-5.1v-7.2ZM350.4,21.1h1.3v7.2h-1.3v-7.2ZM360.1,21.1v7.2h-1.1l-4-4.9v4.9h-1.3v-7.2h1.1l4,4.9v-4.9h1.3ZM367.5,27.2v1.1h-5.4v-7.2h5.3v1.1h-3.9v1.9h3.5v1.1h-3.5v2h4.1Z"/>
        <g>
          <path id="_パス_225" data-name="パス_225" d="M20.7,17.1h5.4l-2.1,10.5c-2.6,2-6.1,3.1-9.8,3.1-7.8,0-12.7-4.5-12.7-11.1S7.9,4.3,17.6,4.3s8.5,1.6,10.7,4.5l-4.2,3.4c-1.7-2-3.8-2.9-6.7-2.9-6,0-9.8,4.3-9.8,9.9s2.6,6.4,7.4,6.4c1.5,0,2.9-.3,4.2-.9l1.5-7.7Z"/>
          <path id="_パス_226" data-name="パス_226" d="M45,22.4l4.5,7.9h-6.3l-4-7.2h-5l-1.4,7.2h-6l5.1-25.6h10.4c6.4,0,10,2.9,10,7.9s-2.7,8.3-7.3,9.8M46.3,13.2c0-2.5-1.8-3.7-4.8-3.7h-4.7l-1.8,8.9h5c3.9,0,6.2-1.8,6.2-5.2"/>
          <path id="_パス_227" data-name="パス_227" d="M54.4,19.6c0-8.7,6.4-15.4,15.8-15.4s12.5,4.5,12.5,11.1-6.4,15.4-15.8,15.4-12.5-4.5-12.5-11.1M76.7,15.7c0-3.8-2.5-6.4-7-6.4s-9.3,4.6-9.3,10c0,3.8,2.5,6.4,7,6.4s9.3-4.6,9.3-10"/>
          <path id="_パス_228" data-name="パス_228" d="M126.9,4.7l-13.5,25.6h-6.3l-2.2-17.2-9.3,17.2h-6.4l-3.3-25.6h5.9l2.3,18,9.6-18h5.5l2.2,18.1,9.7-18.1h5.9Z"/>
          <path id="_パス_229" data-name="パス_229" d="M161.4,12.7c0,6.5-4.8,10.6-12.4,10.6h-5.7l-1.4,7.1h-6l5.1-25.6h10.4c6.4,0,10,3,10,8M155.4,13.2c0-2.5-1.8-3.7-4.8-3.7h-4.6l-1.8,8.9h5c3.9,0,6.2-1.8,6.2-5.2"/>
          <path id="_パス_230" data-name="パス_230" d="M166.4,4.7h6l-4.2,20.8h12.8l-1,4.8h-18.8l5.1-25.6Z"/>
          <path id="_パス_231" data-name="パス_231" d="M199.4,24.8h-11.9l-3.3,5.5h-6.3l16.6-25.6h5.9l6.3,25.6h-5.9l-1.2-5.5ZM198.4,20.3l-2.2-9.9-6,9.9h8.2Z"/>
          <path id="_パス_232" data-name="パス_232" class="cls-1" d="M217.1,9.5h-8.2l1-4.8h22.3l-1,4.8h-8.2l-4.2,20.8h-5.9l4.1-20.8Z"/>
          <path id="_パス_233" data-name="パス_233" class="cls-1" d="M258.9,4.7l-5.1,25.6h-5.9l2.1-10.4h-11.6l-2.1,10.4h-6l5.1-25.6h6l-2,10.1h11.6l2-10.1h5.9Z"/>
          <path id="_パス_234" data-name="パス_234" class="cls-2" d="M73.9,17.9l-2.2-1.6c-1.5,2.6-5,3.6-6.5,1.3l-2.5,1.9c1.4,2.8,8.1,4,10.9-.4,1.1.3,1.4-.3,1.4-.3l-1.1-.8Z"/>
          <path id="_パス_235" data-name="パス_235" class="cls-1" d="M277.6,30.3h6.4l-7-12.9-3.9,4.2,4.5,8.7Z"/>
          <path id="_パス_236" data-name="パス_236" class="cls-1" d="M270.4,17l4-4.1-4.3-8.2h-6.3l6.6,12.3Z"/>
          <path id="_パス_237" data-name="パス_237" class="cls-2" d="M257.4,30.3h7.1l23.3-25.6h-6.7l-23.7,25.6Z"/>
          <rect id="_長方形_25" data-name="長方形_25" x="126.7" y="15.8" width="5.9" height="5.9"/>
        </g>
        <g>
          <path id="_パス_218" data-name="パス_218" d="M299.1,9.5c0,.2-.2.4-.2.6-.8,2.6-2.3,4.2-4.8,5.3-.3-.5-.6-.9-1-1.3,2.3-.8,3.6-2.2,4.3-4.2h-2.3c-.5.8-1.2,1.6-1.9,2.2-.3-.4-.7-.8-1.2-1,1-.7,1.8-1.6,2.3-2.6.2-.3.3-.7.4-1l1.6.3c0,0,0,0-.1.2,0,0,0,0,0,.1,0,0,0,.2,0,.2,0,.1,0,.2-.1.2,0,0,0,0,0,.1h1.9s.2,0,.2,0c-.1-.3-.3-.6-.5-.8l.8-.3c.3.4.5.8.7,1.3h-.3c0,0,.4.7.4.7ZM299.4,7.2c.3.4.5.8.7,1.3l-.8.3c-.2-.5-.4-.9-.7-1.3l.8-.3Z"/>
          <path id="_パス_219" data-name="パス_219" d="M305.3,14.4v.6h-1.6c0-.5,0-.9,0-1.4v-4.4c0-.4,0-.6,0-1,.3,0,.7,0,1,0h4.6c.4,0,.7,0,1.1,0,0,.3,0,.6,0,1v4.3c0,.5,0,.9,0,1.4h-1.5v-.6h-3.7ZM309,9.6h-3.7v3.4h3.7v-3.4Z"/>
          <path id="_パス_220" data-name="パス_220" d="M320.7,8.8c.2,0,.5,0,.7,0l.6.7c0,.2-.1.3-.1.5,0,.8-.3,1.6-.7,2.4-.5,1-1.2,1.8-2.2,2.3-.5.3-1.1.6-1.7.7-.2-.5-.6-1-1-1.4,1.3-.3,2.1-.7,2.7-1.3.7-.6,1.1-1.5,1.1-2.5h-3.7v.8c0,.3,0,.6,0,.9h-1.6c0-.3,0-.6,0-.9v-1.2c0-.4,0-.6,0-.9.4,0,.7,0,1.1,0h1.5v-.5c0-.3,0-.5,0-.8h1.6c0,.3,0,.5,0,.8v.5h1.5Z"/>
          <path id="_パス_221" data-name="パス_221" d="M333,9.3h0c0,0,0,0,0,.1v.2c-.8,2.7-2.2,4.5-5,5.7-.3-.5-.6-1-1.1-1.4,2.3-.7,3.8-2.2,4.3-4.2h-3.6c-.5,0-.9,0-1.4,0v-1.5c.5,0,1,0,1.4,0h4.4c0-.5.4-.9,1-.9.5,0,1,.4,1,1,0,.5-.4.9-.9,1h0ZM332.5,8.3c0,.3.2.5.5.5s.5-.2.5-.5-.2-.5-.5-.5h0c-.3,0-.5.2-.5.5"/>
          <path id="_パス_222" data-name="パス_222" d="M339.9,7.8c0,.3,0,.7,0,1.1v4.5c1.6-.3,3-1.4,3.7-2.9.3.5.7.9,1.2,1.2-1.2,1.9-2.8,2.9-5.3,3.3-.2,0-.4,0-.5.2l-.8-.9c0-.2.1-.5.1-.7v-4.8s0-.1,0-.1c0-.3,0-.6,0-.9h1.7Z"/>
          <path id="_パス_223" data-name="パス_223" d="M355.8,8.5c-.1,0-.2.2-.3.3-.6.6-1.3,1.2-2,1.7v3.3c0,.5,0,.9,0,1.4h-1.7c0-.5,0-.9,0-1.4v-2.4c-.9.5-1.8.9-2.8,1.3-.2-.5-.5-1-.8-1.4,1.6-.4,3.2-1.2,4.5-2.2.6-.4,1.1-1,1.6-1.6l1.4.9Z"/>
          <path id="_パス_224" data-name="パス_224" d="M366.3,15.2c-.7-.9-1.5-1.7-2.5-2.4-.9,1-1.9,1.8-3.1,2.3-.2-.5-.6-1-1-1.4,1-.4,2-1,2.8-1.7.8-.7,1.3-1.6,1.7-2.5h-2.2c-.5,0-.9,0-1.4.1v-1.5c.3,0,.6,0,.9,0,0,0,.2,0,.5,0h2.9c.2,0,.5,0,.7-.1l.8.8c-.1.1-.2.3-.3.5-.3.8-.7,1.6-1.3,2.3,1,.7,1.9,1.5,2.7,2.3l-1.2,1.3Z"/>
        </g>
      </g>
    </g>
  </g>
</svg>