<?xml version="1.0" encoding="UTF-8"?>
<svg xmlns="http://www.w3.org/2000/svg" width="583.9" height="278.9" version="1.1" viewBox="0 0 583.9 278.9">
  <defs>
    <style>
      .cls-1 {
        fill: #b7bcbf;
      }

      .cls-2 {
        fill: #ffc92a;
      }
    </style>
  </defs>
  <!-- Generator: Adobe Illustrator 28.7.1, SVG Export Plug-In . SVG Version: 1.2.0 Build 142)  -->
  <g>
    <g id="Layer_1">
      <g id="_グループ_277376" data-name="グループ_277376">
        <path id="_合体_773" data-name="合体_773" d="M228.6,275.5c-2.7-1.5-5.2-3.4-7.2-5.7-2.1-2.4-3.8-5.2-4.9-8.2h-5.3v9.9c2-.4,3.8-.8,5.6-1.1,1.7-.4,3.1-.7,4.1-1v4.8c-.9.3-2.1.6-3.5,1-1.5.4-3,.7-4.8,1.1-1.7.4-3.4.7-5.1,1.1-1.7.3-3.2.6-4.7.9-1.4.3-2.5.4-3.4.5l-1.7-5.1c.7,0,1.8-.2,3.2-.4s2.9-.4,4.6-.7v-10.9h-8.8v-4.6h8.8v-21.1h30v4.6h-24.3v2.7h22v4.2h-22v2.7h22v4.2h-22v2.7h29.3v4.6h-7.1l3.2,3c-.9.8-2,1.6-3.3,2.6-1.3,1-2.6,1.8-3.8,2.6,1.7,1,3.4,1.9,5.3,2.5,1.9.7,3.8,1.1,5.7,1.5-.4.5-.8,1-1.1,1.5-.4.6-.8,1.3-1.1,1.9-.3.5-.6,1.1-.8,1.7-3.1-.7-6-1.9-8.8-3.4ZM225.5,266.6c.6-.4,1.4-.9,2.2-1.5.8-.6,1.6-1.2,2.4-1.8.8-.6,1.5-1.2,2.1-1.7h-10.3c1,1.9,2.2,3.6,3.7,5h0ZM180.3,277.7c-1.5-.9-2.9-1.8-4.2-2.9-1.4-1.2-2.6-2.5-3.7-4-3,3.1-6.6,5.6-10.5,7.5-.4-.8-.9-1.5-1.5-2.2-.5-.7-1.1-1.4-1.8-2.1,2.1-1,4.1-2.2,5.9-3.6,1.8-1.4,3.4-2.9,4.9-4.5-1.1-2.5-2.1-5.1-2.7-7.8-.8-3.3-1.4-6.7-1.8-10.1h-12.7v4.7h11.1c0,1.7,0,3.4-.1,5.2,0,1.7-.2,3.4-.3,4.9-.1,1.3-.3,2.6-.6,3.9-.4,2.2-1.2,3.8-2.4,4.7-1.5.9-3.3,1.4-5.1,1.3h-2.6c0-.6-.1-1.2-.2-1.8-.1-.7-.3-1.4-.4-2.1,0-.6-.3-1.1-.5-1.6h2.7c.8,0,1.6,0,2.4-.5.5-.5.8-1.2.9-1.9.2-1.1.4-2.1.4-3.2,0-1.3.1-2.5.1-3.8h-5.6c-.1,2.8-.4,5.6-.9,8.4-.4,2.2-1,4.4-1.8,6.4-.7,1.8-1.7,3.6-2.9,5.2-.5-.4-1.1-.7-1.7-1-.7-.4-1.4-.7-2.1-1-.7-.3-1.2-.5-1.4-.6,1.3-1.7,2.4-3.6,3-5.7.8-2.5,1.3-5.1,1.6-7.8.3-3.5.5-7,.5-10.5v-8.4h18.2c0-1.2-.1-2.5-.2-3.8s0-2.7,0-4.1h5.7c0,1.4,0,2.7,0,4.1s.1,2.6.2,3.9h7.1c-.8-.8-1.6-1.6-2.4-2.4-.8-.7-1.6-1.3-2.4-1.9l3.5-3.6c.9.5,1.7,1.1,2.4,1.8.9.8,1.7,1.5,2.5,2.3.7.6,1.3,1.3,1.9,2-.4.2-.7.5-1,.7-.4.3-.8.7-1.2,1h4.8v5.3h-14.9c.4,4.2,1.3,8.3,2.7,12.3,1.8-3.1,3.2-6.4,4-9.9l5.4,1.7c-1.4,5-3.6,9.8-6.6,14,1.3,2.1,3.1,3.9,5.2,5.2.3-.9.6-1.9.8-2.9.2-.9.4-1.8.5-2.6.5.3,1,.6,1.5.8.7.3,1.3.6,2,.8.7.2,1.2.4,1.7.6-.3,1.6-.7,3.1-1.2,4.6-.4,1.3-.9,2.6-1.6,3.9-.4.9-1.2,1.5-2.1,1.8-.3,0-.5.1-.8,0-.8,0-1.5-.3-2.1-.7h0ZM263.5,276c-.6-.9-1.4-1.6-2.2-2.3,2.8-.7,5.4-1.8,7.8-3.3,1.7-1.1,3-2.7,3.8-4.5-.9.5-2,.8-3.1.8-2.2,0-4.3-.6-5.9-2.1-1.5-1.5-2.4-3.5-2.4-5.6,0-1.5.2-3,1-4.3.7-1.3,1.7-2.3,3-3,1.3-.7,2.8-1.1,4.4-1.1.3,0,.5,0,.7,0s.4,0,.6,0c0-.6-.1-1.2-.2-1.8,0-.6-.1-1.3-.1-1.9-2.6,0-5.1.2-7.6.4-2.5.2-4.7.4-6.8.6-1.7.2-3.4.5-5.1.8l-.8-5.6c1.2,0,2.8-.2,4.8-.3,2.1-.1,4.5-.2,7.1-.4,2.7-.1,5.4-.3,8.3-.4v-6.8h5.6v6.5c2.5,0,4.9-.2,7.2-.3s4.3-.1,6.1-.2c1.8,0,3.2,0,4.2,0l-.4,5.6c-1.9-.2-4.3-.4-7.4-.4-3.1,0-6.3,0-9.7,0,0,1.2,0,2.3.1,3.5s.2,2.3.2,3.4c1.7,2.1,2.5,4.7,2.4,7.4.1,3.9-1.2,7.7-3.7,10.7-2.8,3.1-6.4,5.3-10.4,6.5-.4-.6-.9-1.4-1.5-2.3h0ZM267.7,256.5c-.6.6-.9,1.4-.9,2.2,0,.8.3,1.7.8,2.3.6.6,1.4.9,2.2.8.8,0,1.6-.3,2.1-.9.5-.6.8-1.3.8-2.1,0-.3,0-.6,0-.9,0-.3-.1-.7-.2-1.1-.6-.7-1.6-1.2-2.5-1.2-.8,0-1.7.3-2.3.9h0ZM61.5,274.8c-2.2-2-3.3-4.8-3.3-8.6,0-.4,0-1,0-1.6s.1-1.4.2-2.2c-2-.3-4-.6-5.7-.9-1.5-.3-2.9-.7-4.3-1.2l.9-5.3c1.3.5,2.7.9,4.1,1.1,1.7.3,3.6.6,5.5.9.1-1.1.3-2.3.4-3.4.1-1.2.3-2.3.4-3.5-1.8-.3-3.4-.5-4.9-.8-1.5-.3-2.7-.5-3.6-.8l1-5.4c1.1.4,2.2.7,3.4.9,1.5.3,3.1.6,4.8.8.3-2.1.5-4,.6-5.6.2-1.7.3-2.9.4-3.7l6,.8c-.2.9-.4,2.1-.7,3.7-.3,1.6-.5,3.4-.8,5.4,1.2.1,2.2.2,3.2.3.8,0,1.6,0,2.4,0l-.8,5.4c-.6,0-1.4,0-2.4-.1s-2-.2-3.2-.3c-.1,1.2-.2,2.3-.4,3.4-.1,1.1-.2,2.2-.3,3.4,1.3,0,2.5.1,3.6.1,1.1,0,2.1,0,2.9,0l-.7,5.4c-.9,0-1.8,0-2.9,0-1,0-2.1,0-3.3-.1,0,.5,0,1.1,0,1.6,0,.5,0,1,0,1.4-.1,1.7.4,3.3,1.5,4.6,1,1,2.5,1.5,4.7,1.5,1.8.1,3.6-.4,5.1-1.5,1.3-1.1,2-2.7,1.9-4.3,0-1.8-.6-3.6-1.5-5.1-1.1-1.9-2.7-3.5-4.6-4.7,1-.2,1.9-.4,2.8-.8.8-.3,1.5-.7,2.2-1.2,2.1,1.5,3.8,3.5,5.1,5.8,1.1,1.9,1.7,4.1,1.8,6.4.2,4.3-2.3,8.2-6.2,10-2.1.9-4.3,1.4-6.6,1.4-3.2.1-6.3-.9-8.7-3h0ZM15.4,276.3c-2.2-.2-4.4-.7-6.5-1.6-1.7-.7-3.2-1.8-4.3-3.3-1.1-1.5-1.6-3.3-1.6-5.2,0-2.6,1-5.2,2.9-7,2.3-2.1,4.9-3.8,7.8-5-.6-1.6-1-3.3-1.3-5-.4-2.1-.6-4.2-.7-6.3-.1-2.3-.1-4.6,0-7h6.2c-.2,1.9-.3,3.8-.2,5.7,0,2,.2,4,.5,5.8.2,1.6.5,3.2.9,4.8,1.6-.5,3.3-1,5.1-1.5,1.8-.5,3.6-1,5.4-1.4l1.2,6c-2.7.3-5.4.8-8.1,1.5-2.4.6-4.7,1.4-7,2.4-1.8.8-3.4,1.8-4.9,3.1-1.1.9-1.7,2.2-1.8,3.6,0,1.3.7,2.6,1.9,3.2,1.6.9,3.4,1.5,5.3,1.6,2.6.3,5.1.3,7.7,0,3.1-.3,6.2-.9,9.2-1.7-.4,1-.6,2-.7,3.1-.1,1.1-.2,2.1-.2,3.2-2.9.5-5.8.9-8.8,1.1-1.2,0-2.4.1-3.6.1-1.5,0-2.9,0-4.4-.2ZM313.2,274.4c-1.7-1.2-2.7-3.2-2.7-5.4,0-1.2.3-2.5,1-3.5.7-1,1.6-1.7,2.6-2.2,1.1-.5,2.3-.8,3.5-.8,2.1,0,4.2.7,5.7,2.2,1.5,1.5,2.5,3.4,2.8,5.5,1.2-.5,2.2-1.4,2.9-2.5.8-1.2,1.2-2.6,1.1-4,0-1.3-.3-2.5-1-3.6-.7-1.1-1.6-1.9-2.7-2.5-1.3-.6-2.6-1-4.1-.9-1.9,0-3.8.2-5.6.8-1.6.5-3.1,1.3-4.3,2.4-.6.5-1.3,1.2-2.3,2s-1.8,1.5-2.7,2.2l-3.9-4.2c1.6-.9,3.1-2,4.6-3.2,1.6-1.3,3.3-2.7,4.9-4.3,1.7-1.6,3.2-3.2,4.8-4.9,1.4-1.6,2.8-3.2,4-5-1.4.3-2.9.6-4.5.9-1.6.3-3.2.5-4.7.7s-2.7.3-3.8.4l-1.1-5.5c1.1,0,2.2,0,3.2,0,1.3,0,2.7-.2,4.2-.3s3-.3,4.4-.6c1.4-.2,2.7-.5,3.8-.7.9-.2,1.7-.4,2.5-.7l4.3,2.9c-1.3,2.4-2.8,4.7-4.5,6.7-1.9,2.4-4,4.6-6.1,6.8.6-.3,1.2-.5,1.8-.6.6-.1,1.3-.2,2-.2,2.3,0,4.5.4,6.6,1.4,1.8.9,3.3,2.3,4.3,4,1.1,1.8,1.6,3.9,1.6,6,0,2.3-.6,4.6-1.8,6.5-1.2,2-3,3.6-5.1,4.7-2.4,1.2-5,1.8-7.7,1.7-3.8,0-6.7-.7-8.5-2.2h0ZM316.3,267.6c-.4.3-.6.7-.5,1.2,0,.7.4,1.4,1.1,1.7,1.1.5,2.4.8,3.6.8,0,0,.2,0,.3,0h.3c0-1.1-.5-2.1-1.1-2.9-.6-.7-1.4-1.1-2.3-1.1-.5,0-.9.1-1.3.4h0ZM96.7,270.5c-.1-1.9-.2-4-.3-6.2s0-4.6,0-7c0-2.4.1-4.7.3-7s.3-4.4.6-6.4c.2-1.7.5-3.3.8-5l5.6,1.2c-.4,1.5-.7,3-.9,4.5-.3,1.8-.5,3.9-.6,6-.2,2.2-.3,4.4-.3,6.7,0,2.3,0,4.5,0,6.7,0,2.2.2,4.1.3,5.9.1,1.4.3,2.9.6,4.3l-5.7,1.1c-.2-1.3-.4-2.9-.5-4.8h0ZM117.6,272.7c-5.5-.2-8.7-2-9.4-5.4-.2-.9-.3-1.9-.2-2.9,0-1.2.3-2.4.7-3.5l5,1.2c-.2.5-.3,1.1-.4,1.6,0,.4,0,.9.2,1.3.4,1.2,2.1,1.8,5.1,1.9,1.5,0,3.1,0,4.6-.2,1.6-.1,3.3-.4,4.8-.6,1.4-.2,2.8-.6,4.2-1,0,.4-.1,1.1-.2,1.8s-.1,1.5-.2,2.3c0,.6,0,1.3,0,1.9-1.6.4-3.2.7-4.8.9-1.7.2-3.4.4-5,.5-1.2,0-2.3,0-3.3,0-.4,0-.8,0-1.2,0h0ZM110.4,249.3l-.3-5.9c1.5.2,3,.3,4.5.3,1.8,0,3.6,0,5.5,0,1.9,0,3.7-.2,5.5-.4,1.5-.2,2.9-.4,4.3-.8l-.2,5.8c-1.3.2-2.8.4-4.5.6-1.7.2-3.4.3-5.3.4s-3.5.2-5.2.2h-1c-1.3,0-2.4,0-3.3,0h0ZM354.5,192.6c-1-1.5-2-3-3.2-4.6-1.2-1.6-2.4-3.1-3.6-4.6s-2.4-2.9-3.4-4.1c-1.1-1.2-2-2.2-2.8-2.9-.9-.7-1.5-1.7-1.6-2.8.1-1,.7-2,1.6-2.6.8-.7,1.7-1.6,2.8-2.7s2.2-2.3,3.4-3.6c1.2-1.3,2.3-2.7,3.5-4,1.1-1.4,2.2-2.7,3.1-4,.8-1.1,1.5-2.3,2.1-3.5l5.5,3.7c-.7,1-1.7,2.1-2.9,3.6-1.2,1.4-2.5,2.9-3.9,4.4-1.4,1.5-2.7,3-4.1,4.3-1.3,1.4-2.4,2.5-3.4,3.4-.6.5-.7,1.5-.2,2.1,0,0,.2.2.3.3.7.7,1.6,1.6,2.6,2.8s2.1,2.5,3.3,3.9c1.2,1.4,2.3,2.9,3.5,4.3,1.2,1.4,2.2,2.8,3.1,4.1.9,1.3,1.7,2.3,2.2,3.1-.6.3-1.3.6-1.9.9-.7.4-1.5.9-2.1,1.3-.6.4-1.1.8-1.6,1.3-.7-1.4-1.5-2.7-2.3-4ZM205.2,195.4c-.7-.4-1.4-.8-2.2-1.1-.7-.3-1.4-.6-2.1-.7,2.1-1.2,4.1-2.8,5.7-4.6,1.7-1.8,3.1-4,4.1-6.3,1-2.3,1.5-4.9,1.5-7.4.1-1.3-.3-2.5-1.2-3.5-.8-.7-1.9-1.1-3-1.1-1.5,0-3,.2-4.4.6-1.5.4-2.9.9-4.3,1.5-1.2.5-2.4,1.2-3.5,2-.2-.6-.5-1.1-.8-1.7-.4-.7-.8-1.4-1.3-2.1-.4-.6-.8-1.1-1.3-1.5,2.4-1.2,4.9-2.2,7.5-3,2.6-.9,5.4-1.3,8.1-1.3,1.8,0,3.6.4,5.2,1.2,1.5.8,2.7,2,3.6,3.4.9,1.7,1.4,3.6,1.3,5.5,0,2.9-.5,5.8-1.5,8.5-1,2.6-2.3,5.1-4,7.3-1.6,2.1-3.6,4-5.8,5.5-.5-.5-1-.9-1.6-1.2ZM390.7,193.8c-.7-.8-1.5-1.5-2.4-2.2,4.1-1.5,7.6-4.2,10.2-7.8,2.5-3.8,3.7-8.2,3.6-12.7,0-3-.5-5.2-1.6-6.4-.9-1.1-2.4-1.8-3.9-1.7-1.3.2-2.5.9-3.3,2-1.2,1.6-1.9,3.5-2.2,5.4-.5,2.9-.5,5.8,0,8.7-.6,0-1.2.1-1.8.2-.7.1-1.4.3-2.1.4-.5.1-1,.3-1.5.4-.3-1.5-.4-3-.6-4.5-.1-1.8-.3-3.7-.3-5.8s-.1-4.2-.1-6.2c0-2.1,0-4,0-5.8s.2-3.2.3-4.3l5.9.5c-.2.8-.3,1.8-.5,3-.1,1.2-.3,2.5-.4,3.8,0,1.3-.2,2.6-.2,3.9.7-1.9,1.8-3.6,3.2-5,1.2-1.3,2.9-2,4.6-2,1.8,0,3.7.4,5.2,1.4,1.6,1.1,2.9,2.6,3.6,4.4,1,2.3,1.4,4.8,1.3,7.4,0,6.2-1.4,11.3-4.1,15.3-2.9,4.2-6.8,7.6-11.3,9.8-.6-.9-1.2-1.7-1.9-2.5h0ZM58.7,193.8c-.7-.8-1.5-1.5-2.4-2.2,4.1-1.5,7.6-4.2,10.2-7.8,2.5-3.8,3.7-8.2,3.6-12.7,0-3-.5-5.2-1.6-6.4-.9-1.1-2.4-1.8-3.9-1.7-1.3.2-2.5.9-3.3,2-1.2,1.6-1.9,3.5-2.2,5.4-.5,2.9-.5,5.8,0,8.7-.4,0-1,.1-1.8.2-.7.1-1.4.3-2.1.4-.5.1-1,.3-1.5.4-.3-1.5-.4-3-.6-4.5-.1-1.8-.3-3.7-.3-5.8,0-2.1-.1-4.2-.1-6.2,0-2.1,0-4,0-5.8,0-1.8.2-3.2.3-4.3l5.9.5c-.2.8-.3,1.8-.5,3-.1,1.2-.3,2.5-.4,3.8,0,1.3-.2,2.6-.2,3.9.7-1.9,1.8-3.6,3.2-5,1.2-1.3,2.9-2,4.6-2,1.8,0,3.7.4,5.2,1.4,1.6,1.1,2.9,2.6,3.6,4.4,1,2.3,1.4,4.8,1.3,7.4,0,6.2-1.4,11.3-4.1,15.3-2.9,4.2-6.8,7.6-11.3,9.8-.6-.9-1.2-1.7-1.9-2.5h0ZM21.3,193.5c-.4-.9-.8-1.7-1.4-2.4,4-.5,7-1.7,9-3.5,1.9-1.7,3-4.1,3-6.7,0-1.5-.4-2.9-1.2-4.1-.8-1.2-2-2.1-3.3-2.7-2.2,4.2-5.1,8.1-8.4,11.5.2.6.4,1.2.6,1.8.2.6.4,1.1.6,1.7-.6.2-1.2.4-1.7.6-.6.3-1.3.6-1.9.9-.5.2-1,.5-1.4.8-.1-.3-.3-.7-.4-1s-.3-.7-.4-1c-1.6,1.1-3.3,2-5.1,2.6-1.6.5-3.2.7-4.9.5-1.2-.2-2.2-.8-3-1.7-1-1.3-1.6-2.9-1.4-4.5,0-2.3.5-4.5,1.5-6.5,1-2,2.5-3.9,4.2-5.4,1.8-1.6,3.9-2.9,6.1-3.8,0-1,0-1.9,0-2.9,0-.9,0-1.9.1-2.8-1.9.1-3.7.2-5.4.2-1.4,0-2.7,0-4.1-.1l-.4-5.2c1.2.1,2.8.2,4.6.2,1.8,0,3.7,0,5.8-.1.2-1.2.3-2.3.5-3.3s.3-2,.5-3l5.3,1c-.3,1.5-.6,3.1-.9,4.8,2.4-.3,4.6-.6,6.8-1,1.9-.3,3.7-.8,5.5-1.4l.5,5c-2,.6-3.9,1-6,1.3-2.4.4-4.8.8-7.4,1,0,.7-.1,1.5-.1,2.3,0,.8,0,1.5,0,2.3,1.5-.3,3-.4,4.5-.4.5,0,1,0,1.4,0s.9,0,1.4.1c.3-.6.5-1.2.7-1.8.2-.6.4-1.3.6-1.9l5.2,1.4c-.2.6-.4,1.2-.7,1.8-.2.6-.5,1.2-.7,1.7,2.4.9,4.4,2.4,6,4.3,1.5,1.9,2.2,4.3,2.2,6.7,0,2.5-.6,5-1.9,7.2-1.3,2.1-3.2,3.9-5.4,5.1-2.6,1.4-5.4,2.3-8.3,2.7-.2-.8-.5-1.7-.8-2.4h0ZM7.2,179.7c-1.1,1.5-1.8,3.4-1.8,5.3,0,1,.2,1.6.7,1.8.6.2,1.3.2,2,0,.8-.2,1.5-.5,2.2-1,.9-.5,1.8-1.2,2.7-1.9-.3-1.3-.5-2.7-.6-4.2-.2-1.4-.3-2.9-.4-4.4-1.9,1.1-3.5,2.5-4.8,4.3h0ZM19.3,173.1c-.7,0-1.4.2-2.2.4,0,2,.3,4,.6,6,.8-.9,1.5-1.9,2.3-3,.8-1.1,1.5-2.3,2.2-3.5h-.6c-.8,0-1.5,0-2.3.1h0ZM429.4,192.5c-1-1.2-2.1-2.3-3.2-3.4-1-1-2-1.9-3.1-2.7l3.6-3.3c.8.6,1.6,1.2,2.4,1.8.9.8,1.7,1.6,2.6,2.4.9.8,1.7,1.7,2.5,2.5.8.8,1.4,1.5,1.8,2.1l-4.3,3.8c-.7-1.2-1.5-2.3-2.4-3.3ZM251.5,194.8c-1.8-.4-3.6-1.2-5-2.5-1.2-1.2-1.9-2.8-1.8-4.5,0-1.5.5-3,1.4-4.2,1.1-1.4,2.4-2.6,3.8-3.5,1.8-1.1,3.6-2.1,5.6-2.9v-.4c0-.9-.2-1.8-.8-2.5-.6-.5-1.3-.9-2.1-.9-1.4-.1-2.9.1-4.2.6-1.5.6-2.9,1.6-4,2.8-.4.4-.9.9-1.5,1.5-.6.6-1.2,1.2-1.8,1.8-.6.6-1.1,1.1-1.6,1.4l-4.2-4.1c2.3-1.6,4.5-3.4,6.3-5.6,1.9-2.2,3.6-4.6,5-7.2-1.8,0-3.4.1-4.9.2s-2.6,0-3.3,0l-.2-5.5c1.1,0,2.6.1,4.5.1s4,0,6.3-.1c.7-1.9,1.1-3.9,1.2-6l5.7.3c-.1,1.8-.4,3.6-1,5.3,2.4-.2,4.6-.4,6.6-.6,1.6-.2,3.1-.4,4.7-.8l.3,5.3c-.9.2-2.1.3-3.5.5-1.4.2-3,.3-4.8.5-1.7.2-3.5.3-5.4.4-.4.9-.9,1.8-1.4,2.7-.5.9-1.1,1.8-1.7,2.6,1.2-.5,2.6-.8,3.9-.8,1.7,0,3.4.5,4.8,1.5,1.4,1.2,2.3,3,2.4,4.9,1.8-.6,3.6-1.2,5.5-1.7,1.9-.5,3.7-1,5.4-1.4l1.6,5.3c-2.2.3-4.4.7-6.5,1.2-2.1.5-4.1,1-5.9,1.6v6.4h-5.7v-4.2c-1.4.6-2.7,1.4-3.8,2.4-.8.5-1.3,1.4-1.4,2.3,0,1.1.7,1.8,2,2.3,2,.5,4,.7,6,.6,1.2,0,2.5,0,3.7-.2,1.4-.1,2.7-.3,4.1-.6,1.4-.2,2.6-.5,3.6-.8,0,.4-.1,1-.2,1.8,0,.8,0,1.6,0,2.3,0,.8,0,1.3,0,1.7-1.7.4-3.5.7-5.3.9-1.8.2-3.6.3-5.5.3-2.4,0-4.8-.2-7.1-.8h0ZM159.5,194.3c-2.2-.2-4.4-.7-6.5-1.6-1.7-.7-3.2-1.8-4.3-3.3-1.1-1.5-1.6-3.3-1.6-5.2,0-2.6,1-5.2,2.9-7,2.3-2.1,4.9-3.9,7.8-5-.6-1.6-1-3.3-1.3-5-.4-2.1-.6-4.2-.7-6.3-.1-2.3-.1-4.6,0-7h6.2c-.2,1.9-.3,3.8-.2,5.7,0,2,.2,4,.5,5.8.2,1.6.5,3.2.9,4.8,1.6-.5,3.3-1,5.1-1.5,1.8-.5,3.6-1,5.4-1.4l1.2,6c-2.7.3-5.4.8-8.1,1.5-2.4.6-4.7,1.4-7,2.4-1.8.8-3.4,1.8-4.9,3.1-1.1.9-1.7,2.2-1.8,3.6,0,1.3.7,2.6,1.9,3.2,1.6.9,3.4,1.5,5.3,1.6,2.6.3,5.1.3,7.7,0,3.1-.3,6.2-.9,9.2-1.7-.4,1-.6,2-.7,3.1-.1,1.1-.2,2.1-.2,3.2-2.9.5-5.8.9-8.8,1.1-1.2,0-2.4.1-3.6.1-1.5,0-2.9,0-4.4-.2h0ZM94.5,193.2c-.6-.4-1.2-.8-1.9-1.2-.5-.3-1.1-.5-1.6-.7,1.5-1.6,2.8-3.4,3.9-5.3,1.3-2.2,2.5-4.4,3.6-6.7,1.1-2.4,2.1-4.9,3-7.5-1.6.2-3.2.4-4.7.7-1.5.3-2.8.5-3.8.8,0-.4-.1-1-.2-1.7s-.3-1.4-.4-2.1c-.1-.5-.3-1-.5-1.5.7,0,1.7-.2,2.9-.3s2.5-.2,3.9-.4c1.4-.1,2.9-.3,4.3-.4.6-2,1-4,1.4-5.9.3-1.8.6-3.6.7-5.4l5.7,1c-.2,1.5-.4,3-.8,4.7-.4,1.7-.8,3.4-1.3,5.2.6,0,1.2,0,1.7,0,.5,0,1,0,1.3,0,1.2,0,2.3.2,3.4.6,1,.4,1.9,1.2,2.4,2.1.7,1.3,1,2.7,1.1,4.2,0,2.3-.2,4.6-.6,6.8-.5,2.8-1.2,5.5-2.2,8.1-.6,1.6-1.6,3.1-3,4.1-1.4.8-3,1.3-4.7,1.2-1.7,0-3.5-.3-5-1.1,0-.8,0-1.7,0-2.8,0-.9-.1-1.8-.3-2.7,1.5.7,3.1,1,4.7,1.1.7,0,1.4-.2,2-.6.7-.7,1.3-1.6,1.6-2.6.7-1.9,1.2-3.8,1.5-5.7.4-1.7.6-3.5.6-5.2,0-.8-.3-1.7-.9-2.2-.6-.4-1.2-.6-1.9-.5-.9,0-2,0-3.2.1-1,3-2.1,5.9-3.4,8.8s-2.6,5.5-3.9,8c-1.2,2.2-2.5,4.2-4,6.2-.4-.4-.9-.7-1.3-1.1ZM299.6,188.6c-.4-.8-.7-1.5-1.2-2.3-.4-.6-.8-1.2-1.3-1.8,3.7-.2,7.3-.8,10.9-1.7,2.6-.6,5-1.8,7.1-3.4,1.6-1.3,2.5-3.3,2.3-5.3-.2-4.5-3.5-6.6-10-6.3-1.2,0-2.4.2-3.6.4-1.4.2-3,.5-4.7.8-1.7.3-3.4.7-5,1.1-1.7.4-3.3.9-4.7,1.3-1.3.4-2.5.8-3.7,1.4,0,0-.1-.4-.4-1-.3-.6-.6-1.3-.9-2.2-.3-.8-.6-1.5-.9-2.2-.1-.3-.3-.7-.4-1,1-.2,2.3-.5,3.8-.8s3.3-.7,5.2-1.1c1.9-.4,3.8-.7,5.6-1.1s3.7-.6,5.4-.9c1.4-.2,2.9-.4,4.3-.4,3.1-.2,6.2.2,9.1,1.2,2.2.8,4,2.2,5.4,4.1,1.2,1.9,1.9,4.1,1.9,6.3.2,2.3-.4,4.7-1.5,6.7-1.2,2-2.8,3.6-4.8,4.8-2.3,1.4-4.8,2.5-7.5,3.3-3.1.9-6.3,1.5-9.6,1.9-.1-.7-.4-1.4-.7-2ZM128.7,178.7c-.9-1.2-1.9-2.4-2.9-3.6-1.1-1.2-2.1-2.3-3.1-3.3-.8-.8-1.7-1.6-2.6-2.3l4.2-3.6c.9.7,1.8,1.5,2.7,2.3,1,1,2.1,2,3.2,3.2s2.1,2.3,3,3.4c.8.9,1.5,1.9,2.2,2.9l-4.6,3.9c-.6-1.1-1.4-2.1-2.1-3.1ZM126.6,164.2c-1.1-.7-2.2-1.4-3.3-1.9l2-2.7c.7.4,1.4.7,2.1,1.2.8.5,1.7,1.1,2.5,1.6.7.4,1.3.9,2,1.5l-2.1,2.8c-1-.9-2-1.7-3.1-2.4h0ZM209.8,161.6c-1.2-.4-2.5-.8-3.9-1.3-1.4-.5-2.6-1-3.8-1.4-1.2-.5-2.1-.9-2.8-1.2l2.7-4.9c.6.3,1.4.6,2.5,1.1,1.1.4,2.2.8,3.5,1.3,1.3.4,2.5.8,3.7,1.2,1.2.4,2.2.6,3,.8l-1.9,5.4c-.8-.2-1.8-.4-3-.8h0ZM129.8,159.6c-1.1-.7-2.2-1.3-3.3-1.8l2-2.7c.5.3,1.2.6,2.1,1.2.8.5,1.7,1,2.5,1.6.7.4,1.4.9,2,1.5l-2.1,2.8c-1-.9-2.1-1.7-3.2-2.4h0Z"/>
        <g id="logo">
          <g id="_グループ_46" data-name="グループ_46">
            <path id="_パス_218" data-name="パス_218" d="M70.5,81.5c-.2.5-.4,1-.6,1.5-2.1,6.5-5.7,10.5-12.2,13.5-.6-1.3-1.5-2.4-2.6-3.3,5.7-2.1,9.3-5.5,10.9-10.5h-5.8c-1.3,2.2-3,4-4.9,5.5-.9-1-1.9-1.9-3.1-2.6,2.5-1.7,4.4-3.9,5.8-6.6.5-.8.8-1.7.9-2.6l4.1.7c-.1.2-.1.2-.3.5,0,0,0,.2-.2.3,0,.2-.2.4-.2.5-.2.3-.2.5-.3.6,0,.1-.1.3-.2.4h4.9s.5,0,.5,0c-.3-.7-.8-1.4-1.2-2.1l2.1-.7c.8,1,1.4,2.1,1.8,3.3l-.7.2,1.1,1.5ZM71.3,75.5c.7,1,1.3,2.1,1.8,3.2l-2.1.8c-.5-1.2-1.1-2.3-1.8-3.3l2-.7Z"/>
            <path id="_パス_219" data-name="パス_219" d="M134,93.8v1.5h-3.9c.1-1.2.2-2.4.2-3.5v-11.1c0-.9,0-1.6,0-2.5.9,0,1.7.1,2.6,0h11.7c.9,0,1.8,0,2.7,0,0,.8,0,1.5,0,2.6v11c0,1.2,0,2.4.2,3.6h-3.9v-1.5h-9.3ZM143.3,81.7h-9.3v8.6h9.3v-8.6Z"/>
            <path id="_パス_220" data-name="パス_220" d="M220.7,79.8c.6,0,1.2,0,1.8-.2l1.6,1.7c-.2.4-.4.9-.4,1.3-.2,2.1-.8,4.1-1.7,6-1.2,2.5-3.2,4.5-5.6,5.8-1.4.8-2.8,1.4-4.3,1.9-.6-1.4-1.4-2.6-2.4-3.7,3.2-.7,5.3-1.7,6.9-3.2,1.7-1.6,2.7-3.9,2.9-6.2h-9.4v1.9c0,.8,0,1.5,0,2.3h-4.1c0-.8.1-1.6.1-2.4v-3c0-.9,0-1.5-.1-2.3.9,0,1.8.1,2.7.1h3.9v-1.3c0-.7,0-1.3-.1-2h4.2c0,.7-.1,1.3,0,2v1.3h3.9Z"/>
            <path id="_パス_221" data-name="パス_221" d="M299.4,80.9h0c0,.2,0,.2,0,.3v.6c-1.9,7-5.7,11.3-12.6,14.4-.7-1.4-1.6-2.6-2.7-3.6,5.8-1.8,9.7-5.6,10.9-10.7h-9.1c-1.2,0-2.4,0-3.6.1v-3.9c1.2.2,2.4.2,3.6.2h11.1c0-1.3,1.1-2.4,2.4-2.3,1.4,0,2.5,1.1,2.5,2.4,0,1.4-1.1,2.5-2.4,2.5h0ZM298.2,78.3c0,.7.6,1.2,1.2,1.2s1.2-.6,1.2-1.2-.6-1.2-1.2-1.2c-.7,0-1.2.6-1.2,1.2"/>
            <path id="_パス_222" data-name="パス_222" d="M364.7,77.1c-.1.9-.2,1.8-.2,2.7v11.5c4-.8,7.6-3.5,9.5-7.4.8,1.2,1.8,2.3,2.9,3.1-3.1,4.9-7.1,7.4-13.5,8.5-.5,0-.9.2-1.3.4l-1.9-2.3c.2-.6.3-1.2.3-1.8v-12c0,0,0-.3,0-.3,0-.8,0-1.6-.1-2.4h4.3Z"/>
            <path id="_パス_223" data-name="パス_223" d="M452.7,78.9c-.3.2-.6.5-.8.8-1.5,1.6-3.2,3.1-5,4.4v8.3c0,1.2,0,2.3.1,3.5h-4.2c.1-1.2.2-2.3.1-3.5v-6c-2.2,1.3-4.6,2.4-7.1,3.2-.5-1.3-1.2-2.5-2.1-3.5,4.2-1.1,8.1-3,11.5-5.6,1.5-1.1,2.9-2.4,3.9-4l3.5,2.3Z"/>
            <path id="_パス_224" data-name="パス_224" d="M526.9,95.8c-1.8-2.3-3.9-4.4-6.2-6.2-2.2,2.5-4.9,4.5-8,5.9-.6-1.3-1.4-2.4-2.4-3.4,2.6-1,5-2.5,7-4.4,1.9-1.8,3.4-3.9,4.4-6.4h-5.6c-1.2,0-2.3.2-3.4.3v-3.9c.6.1,1.4.2,2.2.2.2,0,.6,0,1.2,0h7.4c.6,0,1.2-.1,1.7-.3l1.9,1.9c-.4.4-.6.8-.8,1.3-.8,2.1-1.9,4-3.2,5.8,2.5,1.7,4.8,3.7,6.9,5.9l-3,3.2Z"/>
            <path id="_パス_225" data-name="パス_225" d="M39.6,26.1h11l-4.3,21.4c-5.8,4.2-12.8,6.4-19.9,6.3C10.6,53.8.6,44.7.6,31.2S13.6,0,33.3,0s17.2,3.2,21.7,9.1l-8.6,7c-3.5-4.2-7.8-5.8-13.6-5.8-12.2,0-20,8.8-20,20.2s5.2,13.1,15.1,13.1c3,0,5.9-.6,8.6-1.9l3-15.6Z"/>
            <path id="_パス_226" data-name="パス_226" d="M90.6,36.9l9.1,16.1h-12.7l-8.2-14.6h-10.3l-2.9,14.6h-12.1L63.9.9h21.2c12.9,0,20.4,5.9,20.4,16.1s-5.6,16.9-14.9,19.8M93.3,18.1c0-5.1-3.6-7.4-9.7-7.4h-9.5l-3.6,18.1h10.3c8,0,12.6-3.7,12.6-10.6"/>
            <path id="_パス_227" data-name="パス_227" d="M109.8,31.2c0-17.8,13-31.2,32.2-31.2s25.3,9.2,25.3,22.6-13,31.2-32.2,31.2-25.3-9.2-25.3-22.6M155.1,23.3c0-7.7-5.1-13-14.2-13s-19,9.3-19,20.3,5.1,13,14.2,13,18.9-9.3,18.9-20.3"/>
            <path id="_パス_228" data-name="パス_228" d="M257,.9l-27.5,52h-12.9l-4.5-35-18.8,35h-12.9L173.7.9h11.9l4.6,36.6L209.8.9h11.1l4.5,36.9L245,.9h12Z"/>
            <path id="_パス_229" data-name="パス_229" d="M327.2,17.1c0,13.2-9.7,21.5-25.3,21.5h-11.6l-2.8,14.3h-12.1L285.8.9h21c13,0,20.4,6,20.4,16.2M315,18.1c0-5.1-3.6-7.4-9.7-7.4h-9.4l-3.6,18.1h10.2c7.9,0,12.6-3.7,12.6-10.6"/>
            <path id="_パス_230" data-name="パス_230" d="M337.2.9h12.1l-8.5,42.2h26.1l-2,9.8h-38.1L337.2.9Z"/>
            <path id="_パス_231" data-name="パス_231" d="M404.3,41.8h-24.2l-6.8,11.1h-12.9L394.1.9h11.9l12.8,52h-12l-2.5-11.1ZM402.2,32.6l-4.4-20.1-12.3,20.1h16.6Z"/>
            <path id="_パス_232" data-name="パス_232" class="cls-1" d="M440.4,10.7h-16.6l2-9.8h45.3l-2,9.8h-16.6l-8.5,42.2h-12l8.4-42.2Z"/>
            <path id="_パス_233" data-name="パス_233" class="cls-1" d="M525.2.9l-10.4,52h-12l4.2-21.2h-23.6l-4.2,21.2h-12.1L477.5.9h12.1l-4.1,20.4h23.6l4.1-20.4h12Z"/>
            <path id="_パス_234" data-name="パス_234" class="cls-2" d="M149.3,27.8l-4.4-3.3c-3.1,5.3-10.2,7.4-13.3,2.5l-5.1,3.8c2.8,5.7,16.4,8.2,22.1-.9,2.3.5,2.9-.6,2.9-.6l-2.2-1.6Z"/>
            <path id="_パス_235" data-name="パス_235" class="cls-1" d="M563.2,52.9h13l-14.3-26.2-8,8.5,9.2,17.7Z"/>
            <path id="_パス_236" data-name="パス_236" class="cls-1" d="M548.7,25.9l8.1-8.3-8.7-16.7h-12.9l13.5,25Z"/>
            <path id="_パス_237" data-name="パス_237" class="cls-2" d="M522.1,52.9h14.4L583.9.9h-13.7l-48.2,52Z"/>
            <rect id="_長方形_25" data-name="長方形_25" x="256.7" y="23.4" width="12" height="12"/>
          </g>
        </g>
      </g>
    </g>
  </g>
</svg>