<?xml version="1.0" encoding="UTF-8"?>
<svg xmlns="http://www.w3.org/2000/svg" width="706" height="209.2" version="1.1" viewBox="0 0 706 209.2">
  <defs>
    <style>
      .cls-1 {
        isolation: isolate;
      }

      .cls-2 {
        fill: #b7bcbf;
      }

      .cls-3 {
        fill: #ffc92a;
      }
    </style>
  </defs>
  <!-- Generator: Adobe Illustrator 28.7.1, SVG Export Plug-In . SVG Version: 1.2.0 Build 142)  -->
  <g>
    <g id="Layer_1">
      <g id="_グループ_277383" data-name="グループ_277383">
        <g id="_グループ_276676" data-name="グループ_276676">
          <g id="_ともに成長する" data-name="ともに成長する" class="cls-1">
            <g class="cls-1">
              <path d="M418.1,201.8c-2.5.4-4.9.7-7.3.9s-4.6.1-6.6,0c-2.1-.2-3.9-.6-5.4-1.3-1.5-.7-2.8-1.6-3.6-2.7-.9-1.2-1.3-2.6-1.3-4.3s.8-4.2,2.4-5.9,3.8-3,6.5-4.2c-.4-1.1-.8-2.5-1.1-4.1-.3-1.6-.5-3.4-.6-5.3-.1-1.9-.1-3.9,0-5.9h5.2c-.2,1.5-.2,3-.2,4.7,0,1.7.2,3.3.4,4.9.2,1.5.5,2.9.8,4,1.3-.4,2.7-.8,4.2-1.2,1.5-.4,3-.8,4.5-1.2l1,5c-2.3.3-4.6.7-6.8,1.3s-4.1,1.3-5.8,2c-1.7.8-3.1,1.7-4.1,2.6-1,.9-1.5,1.9-1.5,3s.5,2,1.6,2.7c1.1.7,2.5,1.1,4.4,1.3s4,.2,6.4,0,5-.7,7.7-1.4c-.3.7-.5,1.5-.6,2.6s-.2,1.9-.1,2.6Z"/>
              <path d="M449.8,203.8c-3,0-5.4-.8-7.2-2.5-1.8-1.7-2.8-4-2.8-7.2,0-.4,0-.8,0-1.4s0-1.1.1-1.8c-1.7-.2-3.3-.5-4.8-.8-1.5-.3-2.7-.6-3.6-1l.8-4.4c.8.3,1.9.7,3.4.9,1.5.3,3,.5,4.6.7.1-.9.2-1.9.3-2.8s.2-1.9.3-2.9c-1.5-.2-2.8-.4-4.1-.7-1.3-.2-2.3-.5-3-.6l.8-4.5c.6.2,1.6.5,2.8.7,1.2.3,2.5.5,4,.7.2-1.7.4-3.3.5-4.7.1-1.4.2-2.4.3-3.1l5,.7c-.2.7-.3,1.8-.6,3.1s-.4,2.9-.6,4.5c1,.1,1.9.2,2.7.2.8,0,1.5,0,2,0l-.7,4.5c-.5,0-1.2,0-2-.1-.8,0-1.7-.2-2.6-.3-.1,1-.2,1.9-.3,2.8,0,.9-.2,1.9-.3,2.8,1.1,0,2.1,0,3,0,.9,0,1.7,0,2.4,0l-.6,4.5c-.7,0-1.5,0-2.4,0-.9,0-1.8,0-2.7,0,0,.5,0,.9,0,1.3,0,.4,0,.8,0,1.2,0,1.7.4,3,1.2,3.8.8.8,2.1,1.2,3.9,1.2s3.2-.4,4.2-1.2c1-.8,1.5-2,1.5-3.6s-.4-2.8-1.2-4.3c-.8-1.5-2.1-2.8-3.8-3.9.7-.1,1.5-.3,2.4-.7.8-.4,1.4-.7,1.8-1,1.9,1.4,3.3,3,4.3,4.8,1,1.8,1.5,3.6,1.5,5.3s-.5,3.6-1.4,5c-.9,1.4-2.2,2.5-3.8,3.3-1.6.8-3.4,1.1-5.5,1.1Z"/>
            </g>
            <g class="cls-1">
              <path d="M472.3,201.8c-.2-1.1-.3-2.4-.4-4-.1-1.6-.2-3.3-.2-5.2,0-1.9,0-3.8,0-5.8s.1-4,.2-5.9c.1-1.9.3-3.7.5-5.3.2-1.6.4-3,.7-4.2l4.7,1c-.3,1-.5,2.2-.8,3.7-.2,1.5-.4,3.2-.5,5-.1,1.8-.2,3.7-.3,5.6s0,3.8,0,5.6c0,1.8.1,3.5.3,4.9.1,1.5.3,2.7.5,3.6l-4.7.9ZM489.3,199.6c-4.6-.1-7.2-1.6-7.8-4.5-.2-.7-.2-1.5-.2-2.4,0-.9.3-1.9.6-2.9l4.2,1c-.2.5-.3,1-.3,1.4,0,.4,0,.8.1,1.1.3,1,1.8,1.5,4.2,1.6,1.2,0,2.5,0,3.9-.1,1.4-.1,2.7-.3,4-.5,1.3-.2,2.5-.5,3.5-.8,0,.4-.1.9-.2,1.5,0,.6-.1,1.3-.1,1.9,0,.7,0,1.2,0,1.6-1.3.3-2.6.6-4,.8-1.4.2-2.8.3-4.2.4-1.4,0-2.6,0-3.7,0ZM483.3,180.1l-.3-4.9c1,.1,2.3.2,3.7.2,1.5,0,3,0,4.6,0s3.1-.2,4.6-.4c1.5-.2,2.7-.4,3.6-.7l-.2,4.8c-1.1.2-2.3.4-3.7.5-1.4.1-2.9.3-4.4.3-1.5,0-2.9.1-4.3.1-1.4,0-2.6,0-3.6,0Z"/>
            </g>
            <g class="cls-1">
              <path d="M526.2,204.2c-.3-.5-.7-1.2-1.2-1.9-.5-.7-1-1.3-1.5-1.7,1.8-.9,3.4-1.9,4.9-3s2.9-2.4,4.1-3.8c-.9-1.9-1.6-4-2.3-6.5-.6-2.4-1.1-5.2-1.5-8.4h-10.6v3.9h9.2c0,1.4,0,2.8,0,4.3,0,1.5-.1,2.8-.3,4.1s-.3,2.4-.5,3.3c-.3,1.9-1,3.2-2,3.9s-2.4,1.1-4.2,1.1h-2.1c0-.4,0-.9-.2-1.5-.1-.6-.2-1.2-.3-1.8s-.3-1-.4-1.3h2.2c1,0,1.6-.1,2-.4.3-.3.6-.8.7-1.6.2-.7.3-1.6.4-2.7s.1-2.1.1-3.2h-4.6c-.1,2.6-.4,5-.8,7-.4,2-.9,3.8-1.5,5.4-.6,1.6-1.4,3-2.4,4.3-.3-.2-.8-.5-1.4-.8-.6-.3-1.2-.6-1.7-.9-.6-.3-1-.4-1.2-.5,1.1-1.3,1.9-2.9,2.5-4.7.6-1.8,1.1-4,1.3-6.5.3-2.5.4-5.4.4-8.7v-7h15.2c0-1-.1-2.1-.1-3.2s0-2.2,0-3.4h4.8c0,1.1,0,2.3,0,3.4s0,2.2.1,3.2h5.9c-.6-.7-1.3-1.3-2-2-.7-.6-1.4-1.1-2-1.6l3-3c.6.4,1.3.9,2,1.5.7.6,1.5,1.3,2.1,1.9.7.6,1.2,1.2,1.6,1.7-.2.1-.5.3-.8.6-.3.3-.7.6-1,.9h4v4.4h-12.4c.4,4,1.2,7.4,2.3,10.2,1.5-2.5,2.6-5.3,3.4-8.2l4.5,1.4c-1.2,4.3-3.1,8.2-5.5,11.7,1.2,1.8,2.6,3.3,4.3,4.4.2-.8.5-1.6.7-2.4.2-.8.3-1.6.4-2.2.3.2.7.4,1.3.7.5.3,1.1.5,1.7.7.6.2,1,.4,1.4.5-.2,1.2-.5,2.5-1,3.8-.4,1.3-.9,2.4-1.3,3.2-.4.8-1,1.3-1.7,1.5-.8.2-1.6,0-2.4-.5-1.2-.7-2.4-1.5-3.5-2.4-1.1-.9-2.1-2.1-3.1-3.4-1.2,1.3-2.6,2.4-4,3.5-1.5,1.1-3,2-4.7,2.8Z"/>
              <path d="M589.1,204.7c-2.6-.6-5.1-1.6-7.3-2.8-2.3-1.3-4.3-2.9-6-4.8s-3.1-4.2-4.1-6.8h-4.4v8.2c1.7-.3,3.2-.6,4.7-.9,1.5-.3,2.6-.6,3.4-.8v4c-.7.2-1.7.5-2.9.8-1.2.3-2.5.6-4,.9-1.4.3-2.8.6-4.3.9-1.4.3-2.7.5-3.9.7-1.2.2-2.1.4-2.8.4l-1.4-4.3c.6,0,1.5-.2,2.7-.3,1.2-.2,2.4-.3,3.8-.6v-9.1h-7.4v-3.8h7.4v-17.6h25v3.8h-20.2v2.3h18.4v3.5h-18.4v2.2h18.3v3.5h-18.3v2.3h24.4v3.8h-5.9l2.6,2.5c-.7.6-1.6,1.4-2.7,2.2-1.1.8-2.1,1.5-3.2,2.2,1.4.9,2.8,1.6,4.4,2.1,1.6.5,3.2,1,4.8,1.2-.3.3-.6.7-.9,1.3-.3.5-.6,1-.9,1.6-.3.5-.5,1-.6,1.4ZM579.2,194.5c.5-.3,1.1-.8,1.8-1.3.7-.5,1.3-1,2-1.5.7-.5,1.2-1,1.7-1.4h-8.6c.8,1.6,1.9,3,3.1,4.2Z"/>
            </g>
            <g class="cls-1">
              <path d="M612.1,204.3c-.3-.5-.7-1.2-1.3-1.9-.5-.7-1.1-1.4-1.8-1.9,2.8-.8,5-1.7,6.5-2.8,1.5-1.1,2.6-2.3,3.2-3.7-.9.4-1.7.6-2.6.6-2,0-3.7-.6-4.9-1.7-1.2-1.1-1.9-2.7-2-4.6,0-1.3.2-2.5.8-3.6.6-1.1,1.4-1.9,2.5-2.5,1.1-.6,2.3-.9,3.6-.9s.4,0,.6,0,.3,0,.5,0c0-.5-.1-1-.2-1.5,0-.5,0-1,0-1.6-2.2,0-4.3.2-6.3.4s-3.9.3-5.6.5c-1.7.2-3.1.4-4.2.7l-.7-4.6c1,0,2.3-.2,4-.3,1.7,0,3.7-.2,5.9-.3s4.5-.2,6.9-.3v-5.6h4.6v5.4c2.1,0,4.1-.2,6-.2,1.9,0,3.6-.1,5.1-.2s2.7,0,3.5,0l-.3,4.7c-1.5-.2-3.6-.3-6.1-.3-2.5,0-5.2,0-8.1,0,0,1,0,1.9.1,2.9,0,1,.1,1.9.2,2.8,1.3,1.5,2,3.6,2,6.2s-1,6.5-3.1,8.9c-2.1,2.4-4.9,4.2-8.7,5.4ZM616.2,190.5c.7,0,1.3-.3,1.8-.8s.6-1,.6-1.8,0-.5,0-.8c0-.3,0-.6-.1-.9-.6-.6-1.3-1-2.1-1s-1.4.2-1.9.7c-.5.5-.7,1.1-.7,1.8,0,.8.2,1.4.7,1.9.5.5,1.1.7,1.8.7Z"/>
              <path d="M659.4,202.8c-3.2,0-5.6-.6-7.1-1.8-1.5-1.2-2.3-2.7-2.3-4.5s.3-2.1.8-2.9c.6-.8,1.3-1.4,2.2-1.9.9-.4,1.9-.7,2.9-.7,2,0,3.6.6,4.8,1.8,1.2,1.2,2,2.7,2.3,4.6,1-.5,1.8-1.1,2.4-2.1.6-.9.9-2.1.9-3.4s-.3-2.1-.8-3c-.5-.9-1.3-1.6-2.3-2.1-1-.5-2.1-.8-3.4-.8s-3.3.2-4.7.6c-1.3.4-2.5,1.1-3.6,2-.5.4-1.1,1-1.9,1.6-.8.7-1.5,1.3-2.2,1.8l-3.3-3.5c1.2-.7,2.5-1.6,3.8-2.6,1.4-1.1,2.7-2.3,4.1-3.6,1.4-1.3,2.7-2.7,4-4.1,1.3-1.4,2.4-2.8,3.4-4.1-1.1.3-2.4.5-3.7.8-1.3.2-2.6.4-3.9.6-1.2.2-2.3.3-3.1.3l-.9-4.6c.7,0,1.6,0,2.7,0s2.2-.2,3.5-.3c1.3-.1,2.5-.3,3.7-.5,1.2-.2,2.3-.4,3.2-.6s1.6-.4,2.1-.6l3.6,2.4c-.9,1.8-2.2,3.7-3.7,5.6-1.6,2-3.3,3.8-5.1,5.7.5-.2,1-.4,1.5-.5.6-.1,1.1-.2,1.6-.2,2.1,0,3.9.4,5.5,1.2s2.8,1.9,3.6,3.3,1.3,3.1,1.3,5-.5,3.8-1.5,5.4c-1,1.6-2.4,2.9-4.2,3.9s-3.9,1.4-6.4,1.4ZM658.8,198.4c-.1-1-.4-1.8-.9-2.4-.5-.6-1.1-.9-1.9-.9s-.8.1-1.1.3c-.3.2-.4.5-.4,1s.3,1,.9,1.4c.6.4,1.6.6,3,.6,0,0,.2,0,.2,0h.2Z"/>
            </g>
          </g>
          <g id="_ありがとう" data-name="ありがとう" class="cls-1">
            <g class="cls-1">
              <path d="M24.9,203.9c-.1-.5-.3-1.2-.7-2-.3-.8-.7-1.5-1.2-2,3.4-.5,5.9-1.4,7.5-2.9,1.7-1.5,2.5-3.4,2.5-5.6s-.3-2.5-1-3.4c-.7-.9-1.6-1.7-2.7-2.2-2.1,3.8-4.4,7-7,9.6.2.5.3,1,.5,1.5.2.5.4.9.5,1.4-.4.1-.9.3-1.4.5-.5.2-1.1.5-1.6.7-.5.3-.9.5-1.2.7-.1-.3-.2-.5-.3-.8-.1-.3-.2-.6-.3-.8-1.4,1-2.9,1.7-4.3,2.1-1.4.4-2.8.6-4,.4-.9-.1-1.7-.6-2.5-1.4-.8-.8-1.2-2.1-1.2-3.8s.4-3.8,1.3-5.4c.9-1.7,2-3.2,3.5-4.5,1.5-1.3,3.2-2.4,5.1-3.2,0-.8,0-1.6,0-2.4,0-.8,0-1.6.1-2.3-1.6.1-3.1.2-4.5.2-1.4,0-2.5,0-3.4-.1l-.4-4.3c1,.1,2.3.2,3.8.2,1.5,0,3.1,0,4.8-.1.1-1,.3-1.9.4-2.8.1-.9.3-1.7.4-2.5l4.4.8c-.3,1.2-.5,2.6-.7,4,2-.2,3.9-.5,5.7-.8,1.8-.3,3.3-.7,4.6-1.2l.4,4.2c-1.3.4-3,.8-5,1.1-2,.3-4,.6-6.2.8,0,.6,0,1.2-.1,1.9,0,.6,0,1.3,0,1.9,1.2-.2,2.4-.4,3.7-.4s.8,0,1.2,0c.4,0,.8,0,1.1.1.2-.5.4-1,.6-1.5.2-.5.4-1,.5-1.6l4.4,1.2c-.2.5-.4,1-.6,1.5-.2.5-.4,1-.6,1.4,2.1.8,3.8,2,5,3.6,1.2,1.6,1.8,3.5,1.8,5.6s-.5,4.3-1.6,6c-1.1,1.7-2.5,3.2-4.5,4.3-1.9,1.1-4.2,1.9-6.9,2.3ZM13.2,196.3c.5-.1,1.2-.4,1.9-.8s1.4-.9,2.2-1.6c-.2-1.1-.4-2.3-.5-3.5-.1-1.2-.2-2.4-.3-3.6-1.7,1-3,2.1-4,3.6-1,1.4-1.5,2.9-1.5,4.4s.2,1.3.6,1.5c.4.2.9.2,1.6,0ZM21.2,190.2c.6-.8,1.3-1.6,1.9-2.5.6-.9,1.2-1.9,1.8-2.9h-.5c-.6,0-1.3,0-1.9,0-.6,0-1.2.2-1.8.3,0,1.7.2,3.3.5,5Z"/>
            </g>
            <g class="cls-1">
              <path d="M57,204.3c-.4-.6-.9-1.3-1.6-2.1-.7-.8-1.4-1.4-2-1.8,3.7-1.4,6.5-3.6,8.5-6.5,2-2.9,3-6.4,3-10.6s-.4-4.3-1.3-5.3c-.9-1-2-1.5-3.2-1.4-1,0-1.9.6-2.8,1.7-.9,1.1-1.5,2.6-1.9,4.5-.4,2-.4,4.4,0,7.2-.4,0-.9,0-1.5.2-.6.1-1.2.2-1.7.4-.5.1-1,.3-1.2.4-.2-1-.3-2.2-.5-3.7-.1-1.5-.2-3.1-.3-4.8,0-1.7-.1-3.5-.1-5.2,0-1.7,0-3.3,0-4.8,0-1.5.1-2.7.2-3.6l4.9.4c-.1.6-.3,1.5-.4,2.5-.1,1-.2,2.1-.3,3.2,0,1.1-.1,2.2-.2,3.2.6-1.7,1.5-3.1,2.7-4.2s2.4-1.7,3.9-1.7c1.6,0,3.1.4,4.4,1.2,1.3.8,2.3,2,3,3.7.7,1.6,1.1,3.7,1.1,6.1,0,5.1-1.1,9.4-3.4,12.8-2.3,3.4-5.4,6.1-9.4,8.2Z"/>
            </g>
            <g class="cls-1">
              <path d="M86.3,202.5c-.2-.2-.6-.5-1.1-.9-.5-.3-1-.7-1.6-1-.5-.3-1-.5-1.4-.6,1.1-1.2,2.2-2.7,3.2-4.4,1-1.7,2-3.6,3-5.6.9-2,1.8-4.1,2.5-6.2-1.4.2-2.7.3-3.9.6-1.3.2-2.3.4-3.1.6,0-.3,0-.8-.2-1.4-.1-.6-.2-1.2-.4-1.7-.1-.6-.3-1-.4-1.3.6,0,1.4-.1,2.4-.2,1,0,2.1-.2,3.3-.3,1.2-.1,2.4-.2,3.6-.3.5-1.7.9-3.3,1.2-4.9.3-1.6.5-3.1.6-4.5l4.7.8c-.1,1.2-.3,2.5-.6,3.9-.3,1.4-.7,2.8-1.1,4.3.5,0,1,0,1.4,0,.4,0,.8,0,1.1,0,1.1,0,2,.2,2.9.5.8.3,1.5.9,2,1.8.5.8.8,2,.9,3.5,0,1.5,0,3.4-.5,5.7-.5,2.9-1.1,5.1-1.8,6.8-.7,1.6-1.5,2.8-2.5,3.4-1,.7-2.3,1-3.9,1s-3-.3-4.2-.9c0-.6,0-1.4,0-2.3,0-.9-.1-1.7-.2-2.2,1.3.6,2.6.9,3.9.9s1.2-.2,1.7-.5c.5-.4.9-1.1,1.3-2.2.4-1.1.9-2.7,1.3-4.8.4-1.9.6-3.4.5-4.3,0-.9-.3-1.6-.8-1.9-.4-.3-1-.4-1.6-.4s-1.6,0-2.7.1c-.8,2.5-1.8,4.9-2.8,7.3-1.1,2.4-2.1,4.6-3.3,6.7s-2.2,3.8-3.3,5.1ZM115.5,192.1c-.4-.7-1-1.6-1.8-2.6s-1.6-2-2.4-3-1.7-1.9-2.6-2.8c-.8-.8-1.5-1.5-2.2-1.9l3.5-3c.6.5,1.4,1.1,2.2,1.9.9.8,1.7,1.7,2.6,2.7.9,1,1.7,1.9,2.5,2.8.8.9,1.4,1.7,1.8,2.4l-3.8,3.3ZM114.6,179.5c-.7-.7-1.6-1.3-2.6-2-1.1-.7-2-1.2-2.8-1.6l1.7-2.2c.5.2,1,.5,1.7,1,.7.4,1.4.9,2.1,1.4.7.5,1.2.9,1.6,1.2l-1.8,2.3ZM117.3,175.7c-.7-.7-1.6-1.3-2.7-2-1.1-.7-2-1.2-2.8-1.5l1.7-2.3c.5.2,1,.5,1.7,1s1.4.9,2.1,1.3c.7.5,1.3.9,1.7,1.2l-1.8,2.3Z"/>
            </g>
            <g class="cls-1">
              <path d="M153.3,201.8c-2.5.4-4.9.7-7.3.9-2.4.2-4.6.1-6.6,0-2.1-.2-3.9-.6-5.4-1.3-1.5-.7-2.8-1.6-3.6-2.7-.9-1.2-1.3-2.6-1.3-4.3s.8-4.2,2.4-5.9c1.6-1.6,3.8-3,6.5-4.2-.4-1.1-.8-2.5-1.1-4.1-.3-1.6-.5-3.4-.6-5.3-.1-1.9-.1-3.9,0-5.9h5.2c-.2,1.5-.2,3-.2,4.7,0,1.7.2,3.3.4,4.9.2,1.5.5,2.9.8,4,1.3-.4,2.7-.8,4.2-1.2,1.5-.4,3-.8,4.5-1.2l1,5c-2.3.3-4.6.7-6.8,1.3-2.2.6-4.1,1.3-5.8,2-1.7.8-3.1,1.7-4.1,2.6-1,.9-1.5,1.9-1.5,3s.5,2,1.6,2.7c1.1.7,2.5,1.1,4.4,1.3,1.9.2,4,.2,6.4,0,2.4-.2,5-.7,7.7-1.4-.3.7-.5,1.5-.6,2.6s-.2,1.9-.1,2.6Z"/>
            </g>
            <g class="cls-1">
              <path d="M178.8,204.5c-.3-.3-.8-.6-1.3-1-.6-.3-1.2-.6-1.8-.9-.6-.3-1.2-.5-1.8-.6,1.8-1,3.4-2.3,4.8-3.8,1.4-1.5,2.6-3.3,3.4-5.2.8-1.9,1.3-4,1.3-6.2s-.3-2.3-1-2.9c-.7-.6-1.5-.9-2.5-.9s-2.4.2-3.7.5-2.5.7-3.6,1.2c-1.1.5-2.1,1.1-2.9,1.7-.1-.3-.4-.8-.7-1.4-.3-.6-.7-1.2-1.1-1.7-.4-.6-.7-1-1.1-1.3,1.9-.9,4-1.8,6.2-2.5,2.3-.7,4.5-1.1,6.8-1.1s3.1.3,4.3,1,2.2,1.6,3,2.9c.7,1.3,1.1,2.8,1.1,4.6s-.4,4.8-1.2,7.1c-.8,2.2-1.9,4.3-3.4,6.1-1.4,1.8-3,3.3-4.8,4.6ZM183.8,176c-.6-.1-1.5-.4-2.5-.7-1-.3-2.1-.7-3.2-1.1-1.1-.4-2.2-.8-3.2-1.2-1-.4-1.8-.7-2.3-1l2.3-4.1c.5.2,1.2.5,2.1.9.9.3,1.9.7,2.9,1.1,1.1.4,2.1.7,3.1,1s1.8.5,2.5.6l-1.6,4.5Z"/>
            </g>
          </g>
          <g id="_をつくり_" data-name="をつくり_" class="cls-1">
            <g class="cls-1">
              <path d="M224.3,203.6c-2.2,0-4.2-.2-5.9-.6-1.8-.4-3.1-1.1-4.2-2.1-1-.9-1.5-2.2-1.5-3.7s.4-2.4,1.2-3.5c.8-1.1,1.8-2,3.2-2.9,1.4-.9,2.9-1.7,4.6-2.4v-.3c0-.9-.2-1.6-.7-2.1-.5-.4-1.1-.7-1.8-.7-1.2,0-2.4,0-3.5.5s-2.2,1.2-3.3,2.3c-.3.3-.7.7-1.2,1.2-.5.5-1,1-1.5,1.5-.5.5-.9.9-1.3,1.2l-3.5-3.4c1.9-1.2,3.6-2.8,5.3-4.6,1.7-1.9,3.1-3.9,4.2-6-1.5,0-2.9,0-4.1.1-1.2,0-2.1,0-2.8,0l-.2-4.6c.9,0,2.2.1,3.8.1s3.4,0,5.3-.1c.6-1.8,1-3.4,1-5l4.8.2c0,1.4-.3,2.9-.8,4.4,2-.2,3.8-.3,5.5-.5,1.7-.2,3-.4,3.9-.7l.3,4.4c-.7.1-1.7.3-2.9.4-1.2.1-2.5.3-4,.4-1.5.1-2.9.3-4.5.4-.3.7-.7,1.5-1.2,2.3-.4.8-.9,1.5-1.4,2.2,1.1-.4,2.1-.6,3.2-.6,1.6,0,2.9.4,4,1.2,1.1.8,1.8,2.2,2,4.1,1.5-.5,3-1,4.6-1.4s3.1-.8,4.5-1.1l1.4,4.4c-1.9.3-3.7.6-5.4,1-1.8.4-3.4.8-4.9,1.3v5.3h-4.7v-3.5c-1.3.6-2.4,1.3-3.2,2-.8.7-1.2,1.3-1.2,1.9,0,.9.5,1.5,1.6,1.9,1.1.4,2.8.5,5,.5s1.9,0,3.1-.2,2.3-.3,3.4-.5c1.1-.2,2.1-.4,3-.7,0,.3-.1.8-.1,1.5s0,1.3,0,1.9,0,1.1,0,1.4c-1.3.3-2.8.6-4.4.7-1.6.2-3.1.3-4.6.3Z"/>
            </g>
            <g class="cls-1">
              <path d="M259,199.5c0-.5-.3-1-.6-1.7-.3-.6-.6-1.3-1-1.9s-.7-1.1-1.1-1.5c3.5-.3,6.5-.8,9.1-1.5,2.5-.7,4.5-1.7,5.9-2.9,1.4-1.2,2-2.7,1.9-4.4-.2-3.8-2.9-5.5-8.3-5.3-.8,0-1.8.1-3,.3-1.2.2-2.5.4-3.9.7s-2.8.6-4.2.9c-1.4.4-2.7.7-3.9,1.1s-2.3.8-3.1,1.1c0,0-.1-.3-.3-.8-.2-.5-.5-1.1-.8-1.8-.3-.7-.5-1.3-.7-1.8-.2-.5-.3-.8-.4-.8.8-.2,1.9-.4,3.2-.7,1.3-.3,2.7-.6,4.3-.9,1.6-.3,3.1-.6,4.7-.9,1.6-.3,3.1-.5,4.5-.7,1.4-.2,2.6-.3,3.6-.3,3.1-.1,5.6.2,7.6,1,2,.8,3.5,1.9,4.5,3.4,1,1.5,1.5,3.3,1.6,5.3,0,2.2-.3,4-1.3,5.6-.9,1.6-2.2,2.9-4,4-1.7,1.1-3.8,2-6.2,2.7-2.4.7-5.1,1.2-8,1.6Z"/>
            </g>
            <g class="cls-1">
              <path d="M306.2,204.5c-.5-1-1.1-2.1-1.9-3.3-.8-1.2-1.7-2.5-2.7-3.8-1-1.3-2-2.6-3-3.9-1-1.3-2-2.4-2.9-3.4-.9-1-1.7-1.8-2.3-2.4-.9-.9-1.4-1.7-1.4-2.3s.4-1.4,1.3-2.1c.7-.6,1.5-1.3,2.4-2.2.9-.9,1.9-1.9,2.8-3,1-1.1,2-2.2,2.9-3.4.9-1.1,1.8-2.3,2.6-3.3.8-1.1,1.4-2.1,1.8-2.9l4.6,3.1c-.6.8-1.4,1.8-2.4,3-1,1.2-2.1,2.4-3.3,3.7s-2.3,2.5-3.4,3.6c-1.1,1.1-2,2.1-2.8,2.8-.6.6-.6,1.3,0,2,.6.6,1.3,1.4,2.2,2.3.9,1,1.8,2.1,2.8,3.2,1,1.2,1.9,2.4,2.9,3.6s1.8,2.3,2.6,3.4c.8,1.1,1.4,1.9,1.8,2.6-.4.2-.9.4-1.6.8-.6.3-1.2.7-1.8,1.1-.6.4-1,.7-1.3,1.1Z"/>
            </g>
            <g class="cls-1">
              <path d="M336,204.3c-.4-.6-.9-1.3-1.6-2.1-.7-.8-1.4-1.4-2-1.8,3.7-1.4,6.5-3.6,8.5-6.5,2-2.9,3-6.4,3-10.6s-.4-4.3-1.3-5.3c-.9-1-2-1.5-3.2-1.4-1,0-1.9.6-2.8,1.7-.9,1.1-1.5,2.6-1.9,4.5-.4,2-.4,4.4,0,7.2-.4,0-.9,0-1.5.2-.6.1-1.2.2-1.7.4-.5.1-1,.3-1.2.4-.2-1-.3-2.2-.5-3.7-.1-1.5-.2-3.1-.3-4.8,0-1.7-.1-3.5-.1-5.2,0-1.7,0-3.3,0-4.8,0-1.5.1-2.7.2-3.6l4.9.4c-.1.6-.3,1.5-.4,2.5-.1,1-.2,2.1-.3,3.2,0,1.1-.1,2.2-.2,3.2.6-1.7,1.5-3.1,2.7-4.2s2.4-1.7,3.9-1.7c1.6,0,3.1.4,4.4,1.2,1.3.8,2.3,2,3,3.7.7,1.6,1.1,3.7,1.1,6.1,0,5.1-1.1,9.4-3.4,12.8-2.3,3.4-5.4,6.1-9.4,8.2Z"/>
              <path d="M368.7,203.8c-.5-.9-1.2-1.8-2-2.8-.8-1-1.7-1.9-2.6-2.8s-1.8-1.6-2.6-2.2l3-2.8c.6.4,1.3.9,2,1.5.7.6,1.5,1.3,2.2,2,.7.7,1.4,1.4,2.1,2.1.6.7,1.1,1.3,1.5,1.8l-3.6,3.2Z"/>
            </g>
          </g>
        </g>
        <g id="_グループ_47" data-name="グループ_47">
          <g id="_グループ_46" data-name="グループ_46">
            <path id="_パス_218" data-name="パス_218" d="M86.7,103.5c-.3.6-.5,1.2-.7,1.8-2.5,7.8-6.9,12.7-14.7,16.2-.8-1.5-1.8-2.9-3.1-4,6.9-2.5,11.1-6.6,13.1-12.7h-6.9c-1.6,2.6-3.6,4.8-5.9,6.6-1-1.3-2.3-2.3-3.7-3.1,3-2,5.4-4.8,6.9-8,.5-1,.9-2,1.1-3.1l4.9.9c-.1.3-.2.3-.3.6,0,0,0,.2-.2.4,0,.2-.2.5-.2.5-.2.4-.3.7-.3.7,0,.2-.1.3-.2.4h5.9c0,0,.6,0,.6,0-.4-.9-.9-1.7-1.5-2.5l2.6-.8c.9,1.2,1.6,2.6,2.2,4l-.8.3,1.3,1.8ZM87.6,96.3c.9,1.2,1.6,2.5,2.2,3.9l-2.5.9c-.6-1.4-1.3-2.8-2.1-4l2.5-.8Z"/>
            <path id="_パス_219" data-name="パス_219" d="M163.2,118.3v1.8h-4.8c.2-1.4.2-2.8.2-4.3v-13.4c0-1.1,0-1.9,0-3,1.1,0,2.1.1,3.2,0h14.1c1.1,0,2.2,0,3.2,0,0,.9,0,1.9,0,3.1v13.2c0,1.4,0,2.9.2,4.3h-4.7v-1.8h-11.2ZM174.4,103.7h-11.2v10.4h11.2v-10.4Z"/>
            <path id="_パス_220" data-name="パス_220" d="M267.7,101.4c.7,0,1.5,0,2.1-.3l2,2c-.3.5-.4,1-.4,1.6-.2,2.5-.9,5-2,7.3-1.5,3-3.8,5.4-6.7,7-1.7.9-3.4,1.7-5.2,2.3-.7-1.6-1.7-3.1-2.9-4.4,3.9-.9,6.4-2.1,8.4-3.9,2.1-2,3.3-4.6,3.5-7.5h-11.3v2.3c0,.9,0,1.8,0,2.7h-4.9c.1-1,.2-1.9.2-2.9v-3.6c0-1.1,0-1.8-.1-2.8,1.1.1,2.2.2,3.3.2h4.7v-1.6c0-.8,0-1.6-.2-2.4h5c0,.8-.1,1.6,0,2.4v1.6h4.7Z"/>
            <path id="_パス_221" data-name="パス_221" d="M362.6,102.7h0c0,.2,0,.3,0,.4l-.2.7c-2.1,8.4-6.7,13.7-15,17.4-.8-1.7-1.9-3.2-3.3-4.4,6.9-2.2,11.6-6.8,13.1-12.9h-10.9c-1.4,0-2.9,0-4.3.2v-4.7c1.5.2,2.9.3,4.4.2h13.3c0-1.6,1.3-2.8,2.9-2.8,1.6,0,3,1.3,3,2.9,0,1.6-1.3,3-2.9,3h0ZM361.1,99.7c0,.8.7,1.5,1.5,1.5s1.5-.7,1.5-1.5-.7-1.5-1.5-1.5h0c-.8,0-1.5.7-1.5,1.5"/>
            <path id="_パス_222" data-name="パス_222" d="M441.3,98.2c-.1,1.1-.2,2.1-.2,3.2l-.2,13.8c5-1,9.3-4.3,11.6-8.9.9,1.5,2.1,2.7,3.5,3.8-3.8,5.8-8.6,8.9-16.3,10.2-.5,0-1.1.2-1.6.5l-2.3-2.7c.3-.7.4-1.4.3-2.1v-14.5c.1,0,.1-.4.1-.4,0-1,0-1.9-.2-2.8h5.2Z"/>
            <path id="_パス_223" data-name="パス_223" d="M547.4,100.3c-.4.3-.7.6-1,1-1.8,1.9-3.9,3.7-6,5.2v10.1c0,1.4,0,2.8.2,4.2h-5.1c.1-1.4.2-2.8.2-4.2v-7.2c-2.7,1.6-5.6,2.9-8.5,3.9-.6-1.5-1.4-3-2.5-4.2,5-1.3,9.8-3.6,13.9-6.8,1.9-1.3,3.5-2.9,4.8-4.8l4.2,2.8Z"/>
            <path id="_パス_224" data-name="パス_224" d="M636.8,120.8c-2.2-2.8-4.7-5.3-7.5-7.4-2.7,3-5.9,5.5-9.6,7.2-.7-1.5-1.7-2.9-2.9-4.1,3.1-1.2,6-3,8.5-5.3,2.3-2.1,4.1-4.8,5.2-7.7h-6.8c-1.4,0-2.8.2-4.1.4v-4.6c.8.1,1.7.2,2.6.2.2,0,.7,0,1.5,0h8.9c.7,0,1.4-.2,2.1-.4l2.3,2.3c-.4.4-.7,1-.9,1.5-1,2.5-2.3,4.9-3.8,7,3,2.1,5.7,4.5,8.3,7.1l-3.6,3.9Z"/>
            <path id="_パス_225" data-name="パス_225" d="M49.4,36.7h13.3l-5.2,25.8c-7,5.1-15.4,7.7-24,7.6-19,0-31-11-31-27.2S18.1,5.3,41.9,5.3s20.8,3.9,26.2,10.9l-10.4,8.4c-4.2-5-9.4-7-16.4-7-14.7,0-24.1,10.6-24.1,24.4s6.3,15.8,18.2,15.8c3.6,0,7.1-.7,10.4-2.2l3.7-18.8Z"/>
            <path id="_パス_226" data-name="パス_226" d="M110.9,49.7l10.9,19.3h-15.3l-9.9-17.6h-12.4l-3.5,17.6h-14.6l12.5-62.7h25.5c15.6,0,24.5,7.2,24.5,19.4s-6.7,20.4-17.9,23.9M114.1,27.1c0-6.1-4.3-9-11.7-9h-11.5l-4.4,21.8h12.4c9.6,0,15.2-4.5,15.2-12.8"/>
            <path id="_パス_227" data-name="パス_227" d="M134,42.9c0-21.4,15.7-37.6,38.8-37.6s30.5,11.1,30.5,27.2-15.7,37.6-38.8,37.6-30.5-11.1-30.5-27.2M188.6,33.3c0-9.3-6.1-15.7-17.1-15.7s-22.8,11.2-22.8,24.5,6.1,15.7,17.1,15.7,22.8-11.2,22.8-24.5"/>
            <path id="_パス_228" data-name="パス_228" d="M311.4,6.3l-33.1,62.7h-15.5l-5.5-42.2-22.7,42.2h-15.6l-8-62.7h14.3l5.6,44.1,23.6-44.1h13.4l5.4,44.4,23.6-44.4h14.4Z"/>
            <path id="_パス_229" data-name="パス_229" d="M396.1,25.9c0,15.9-11.7,25.9-30.5,25.9h-14l-3.4,17.3h-14.6l12.5-62.7h25.4c15.7,0,24.5,7.3,24.5,19.5M381.4,27.1c0-6.1-4.3-9-11.6-9h-11.4l-4.4,21.8h12.3c9.6,0,15.1-4.5,15.1-12.8"/>
            <path id="_パス_230" data-name="パス_230" d="M408.2,6.3h14.6l-10.2,50.9h31.4l-2.4,11.8h-45.9l12.5-62.7Z"/>
            <path id="_パス_231" data-name="パス_231" d="M488.9,55.6h-29.2l-8.2,13.4h-15.5l40.6-62.7h14.3l15.4,62.7h-14.5l-3-13.4ZM486.5,44.6l-5.3-24.2-14.8,24.2h20.1Z"/>
            <path id="_パス_232" data-name="パス_232" class="cls-2" d="M532.5,18.2h-20.1l2.4-11.8h54.6l-2.4,11.8h-20l-10.2,50.9h-14.5l10.1-50.9Z"/>
            <path id="_パス_233" data-name="パス_233" class="cls-2" d="M634.8,6.3l-12.5,62.7h-14.5l5.1-25.5h-28.4l-5.1,25.5h-14.6l12.5-62.7h14.6l-4.9,24.6h28.4l4.9-24.6h14.5Z"/>
            <path id="_パス_234" data-name="パス_234" class="cls-3" d="M181.7,38.7l-5.3-4c-3.7,6.4-12.4,8.9-16,3.1l-6.1,4.6c3.4,6.8,19.8,9.8,26.7-1.1,2.7.6,3.4-.7,3.4-.7l-2.7-1.9Z"/>
            <path id="_パス_235" data-name="パス_235" class="cls-2" d="M680.5,69h15.7l-17.2-31.6-9.6,10.3,11.1,21.3Z"/>
            <path id="_パス_236" data-name="パス_236" class="cls-2" d="M663,36.5l9.8-10-10.5-20.2h-15.5l16.2,30.2Z"/>
            <path id="_パス_237" data-name="パス_237" class="cls-3" d="M631,69h17.4l57.2-62.7h-16.5l-58.1,62.7Z"/>
            <rect id="_長方形_25" data-name="長方形_25" x="311.1" y="33.5" width="14.4" height="14.4"/>
          </g>
        </g>
      </g>
    </g>
  </g>
</svg>